<svg width="32" height="31" viewBox="0 0 32 31" fill="none" xmlns="http://www.w3.org/2000/svg">
<path d="M22.675 -0.000488281H1.325C0.593 -0.000488281 0 0.592512 0 1.32451V22.6755C0 23.4065 0.593 23.9995 1.325 23.9995H12.82V14.7055H9.692V11.0835H12.82V8.41251C12.82 5.31251 14.713 3.62451 17.479 3.62451C18.804 3.62451 19.942 3.72351 20.274 3.76751V7.00751L18.356 7.00851C16.852 7.00851 16.561 7.72351 16.561 8.77151V11.0845H20.148L19.681 14.7065H16.561V23.9995H22.677C23.407 23.9995 24 23.4065 24 22.6745V1.32451C24 0.592512 23.407 -0.000488281 22.675 -0.000488281Z" fill="#FDD6BA"/>
<g filter="url(#filter0_d_0_1)">
<mask id="path-2-outside-1_0_1" maskUnits="userSpaceOnUse" x="15" y="12" width="15" height="16" fill="black">
<rect fill="white" x="15" y="12" width="15" height="16"/>
<path fill-rule="evenodd" clip-rule="evenodd" d="M20.9998 27C20.9998 27 18.794 25.3013 18.018 24C17.242 22.6987 15.7715 21.041 16.0301 20C16.2888 18.959 17.242 18.6309 18.018 19.4117C18.794 20.1924 19.3167 21.8841 19.8341 21.6238C20.3514 21.3636 19.9634 18.8912 19.4461 17.4598C18.9287 16.0284 18.3894 13 19.4461 13C20.5028 13 20.5028 14 20.9998 15.5C21.4967 17 21.1087 19 21.4967 19C21.8847 19 22.0328 18.6506 22.0328 18C22.0328 17.8232 22.0672 17.6737 22.1372 17.5499C22.3247 17.2179 22.7671 17.0694 23.4846 17.0694C24.4698 17.0694 23.9815 19 24.4785 19C24.9755 19 24.9755 19.041 24.9755 18C24.9755 16.959 25.4363 17.0694 26.4302 17.0694C27.4241 17.0694 26.9429 19 27.4603 19C27.9776 19 27.4603 18 27.9572 18C28.4542 18 28.9512 18.1577 28.9512 20.5C28.9512 22.8423 29.2302 22.959 28.4542 24C27.6782 25.041 26.9633 26 26.9633 26C26.9633 26 26.9633 27 26.4302 27C25.8971 27 25.6221 26 24.9755 26C24.3288 26 23.9815 27 23.9815 27H20.9998ZM26.9633 25V21H25.9694V25H26.9633ZM23.9815 24C23.9815 24.2709 24.2121 25 24.4785 25C24.753 25 24.9755 24.2754 24.9755 24V22C24.9755 21.7291 24.7449 21 24.4785 21C24.204 21 23.9815 21.7246 23.9815 22V24ZM21.9937 24C21.9937 24.2709 22.2242 25 22.4906 25C22.7651 25 22.9876 24.2754 22.9876 24V22C22.9876 21.7291 22.7571 21 22.4906 21C22.2162 21 21.9937 21.7246 21.9937 22V24Z"/>
</mask>
<path fill-rule="evenodd" clip-rule="evenodd" d="M20.9998 27C20.9998 27 18.794 25.3013 18.018 24C17.242 22.6987 15.7715 21.041 16.0301 20C16.2888 18.959 17.242 18.6309 18.018 19.4117C18.794 20.1924 19.3167 21.8841 19.8341 21.6238C20.3514 21.3636 19.9634 18.8912 19.4461 17.4598C18.9287 16.0284 18.3894 13 19.4461 13C20.5028 13 20.5028 14 20.9998 15.5C21.4967 17 21.1087 19 21.4967 19C21.8847 19 22.0328 18.6506 22.0328 18C22.0328 17.8232 22.0672 17.6737 22.1372 17.5499C22.3247 17.2179 22.7671 17.0694 23.4846 17.0694C24.4698 17.0694 23.9815 19 24.4785 19C24.9755 19 24.9755 19.041 24.9755 18C24.9755 16.959 25.4363 17.0694 26.4302 17.0694C27.4241 17.0694 26.9429 19 27.4603 19C27.9776 19 27.4603 18 27.9572 18C28.4542 18 28.9512 18.1577 28.9512 20.5C28.9512 22.8423 29.2302 22.959 28.4542 24C27.6782 25.041 26.9633 26 26.9633 26C26.9633 26 26.9633 27 26.4302 27C25.8971 27 25.6221 26 24.9755 26C24.3288 26 23.9815 27 23.9815 27H20.9998ZM26.9633 25V21H25.9694V25H26.9633ZM23.9815 24C23.9815 24.2709 24.2121 25 24.4785 25C24.753 25 24.9755 24.2754 24.9755 24V22C24.9755 21.7291 24.7449 21 24.4785 21C24.204 21 23.9815 21.7246 23.9815 22V24ZM21.9937 24C21.9937 24.2709 22.2242 25 22.4906 25C22.7651 25 22.9876 24.2754 22.9876 24V22C22.9876 21.7291 22.7571 21 22.4906 21C22.2162 21 21.9937 21.7246 21.9937 22V24Z" fill="white"/>
<path d="M20.9998 27L20.3896 27.7923L20.6593 28H20.9998V27ZM16.0301 20L17.0006 20.2411L17.0006 20.2411L16.0301 20ZM18.018 19.4117L17.3087 20.1166L17.3087 20.1166L18.018 19.4117ZM19.8341 21.6238L19.3847 20.7305L19.3847 20.7305L19.8341 21.6238ZM19.4461 17.4598L20.3865 17.1199L20.3865 17.1199L19.4461 17.4598ZM19.4461 13L19.4461 12L19.4461 12L19.4461 13ZM21.4967 19L21.4967 20L21.4967 20L21.4967 19ZM22.0328 18L21.0328 18L22.0328 18ZM22.1372 17.5499L21.2665 17.0581L21.2665 17.0581L22.1372 17.5499ZM23.4846 17.0694L23.4846 16.0694L23.4846 16.0694L23.4846 17.0694ZM24.4785 19L24.4785 18L24.4785 18L24.4785 19ZM24.9755 18L23.9755 18L23.9755 18L24.9755 18ZM26.4302 17.0694L26.4302 16.0694L26.4302 16.0694L26.4302 17.0694ZM27.4603 19L27.4603 20L27.4603 20L27.4603 19ZM27.9572 18L27.9572 17L27.9572 17L27.9572 18ZM28.9512 20.5L27.9512 20.5L28.9512 20.5ZM28.4542 24L29.256 24.5977L29.256 24.5977L28.4542 24ZM26.9633 26L26.1616 25.4023L25.9633 25.6683V26H26.9633ZM26.4302 27L26.4302 26L26.4302 26L26.4302 27ZM24.9755 26L24.9755 25L24.9755 26ZM23.9815 27V28H24.6929L24.9262 27.328L23.9815 27ZM26.9633 25V26H27.9633V25H26.9633ZM26.9633 21H27.9633V20H26.9633V21ZM25.9694 21V20H24.9694V21H25.9694ZM25.9694 25H24.9694V26H25.9694V25ZM20.9998 27C21.6099 26.2077 21.61 26.2078 21.61 26.2078C21.6101 26.2078 21.6101 26.2079 21.6101 26.2079C21.6102 26.2079 21.6102 26.2079 21.6101 26.2079C21.6101 26.2078 21.6099 26.2077 21.6096 26.2075C21.6089 26.207 21.6078 26.2061 21.6061 26.2048C21.6028 26.2022 21.5974 26.198 21.5901 26.1923C21.5756 26.181 21.5534 26.1636 21.5245 26.1407C21.4666 26.0948 21.3819 26.0269 21.2772 25.9411C21.0675 25.769 20.7804 25.5269 20.4712 25.2468C19.8255 24.662 19.1813 23.9983 18.8768 23.4878L17.1591 24.5122C17.6307 25.3029 18.4773 26.1393 19.1285 26.7291C19.4678 27.0364 19.7807 27.3003 20.0087 27.4874C20.123 27.5811 20.2167 27.6561 20.2824 27.7082C20.3153 27.7343 20.3413 27.7547 20.3594 27.7689C20.3685 27.7759 20.3756 27.7815 20.3807 27.7854C20.3832 27.7874 20.3853 27.7889 20.3867 27.7901C20.3875 27.7906 20.3881 27.7911 20.3886 27.7915C20.3888 27.7917 20.389 27.7918 20.3892 27.792C20.3893 27.792 20.3894 27.7921 20.3894 27.7921C20.3895 27.7922 20.3896 27.7923 20.9998 27ZM18.8768 23.4878C18.6639 23.1307 18.4079 22.7566 18.1686 22.4073C17.9219 22.0471 17.6892 21.708 17.4893 21.3809C17.2874 21.0507 17.1451 20.7741 17.0655 20.5486C16.9826 20.3135 17.003 20.2315 17.0006 20.2411L15.0596 19.7589C14.9279 20.289 15.0351 20.8046 15.1794 21.2138C15.3271 21.6325 15.5524 22.0469 15.7828 22.4239C16.0151 22.804 16.2794 23.1884 16.5186 23.5375C16.7652 23.8975 16.9841 24.2187 17.1591 24.5122L18.8768 23.4878ZM17.0006 20.2411C17.069 19.966 17.1764 19.9622 17.1275 19.9774C17.1091 19.9832 17.1019 19.9773 17.1203 19.983C17.1427 19.9899 17.2108 20.0181 17.3087 20.1166L18.7272 18.7067C18.1424 18.1183 17.3374 17.8172 16.5326 18.0679C15.7485 18.3123 15.2499 18.993 15.0596 19.7589L17.0006 20.2411ZM17.3087 20.1166C17.584 20.3936 17.8176 20.8419 18.1652 21.4221C18.3068 21.6584 18.5012 21.9715 18.7333 22.2041C18.852 22.3231 19.0432 22.4863 19.3088 22.5793C19.6139 22.6861 19.9614 22.6792 20.2835 22.5172L19.3847 20.7305C19.5774 20.6335 19.7955 20.6306 19.9698 20.6917C20.1049 20.739 20.1642 20.8066 20.1491 20.7915C20.1134 20.7556 20.0316 20.6458 19.8809 20.3942C19.6437 19.9984 19.228 19.2105 18.7272 18.7067L17.3087 20.1166ZM20.2835 22.5172C20.6589 22.3283 20.8353 22.0024 20.9164 21.7983C21.0025 21.5817 21.0409 21.3552 21.0598 21.1615C21.0979 20.7692 21.0735 20.3111 21.0213 19.8648C20.9161 18.965 20.6733 17.9134 20.3865 17.1199L18.5056 17.7997C18.7362 18.4376 18.9461 19.3379 19.0349 20.0971C19.0797 20.4804 19.0876 20.7787 19.0692 20.9678C19.0597 21.0649 19.0476 21.0854 19.0579 21.0594C19.0633 21.0459 19.1386 20.8543 19.3847 20.7305L20.2835 22.5172ZM20.3865 17.1199C20.1556 16.481 19.9134 15.4562 19.8532 14.6213C19.8222 14.1901 19.848 13.9101 19.887 13.7773C19.9053 13.7151 19.9043 13.7641 19.8295 13.8391C19.7294 13.9395 19.5827 14 19.4461 14L19.4461 12C19.0453 12 18.6843 12.1552 18.4134 12.4268C18.1679 12.673 18.0397 12.9697 17.968 13.2138C17.8271 13.6936 17.822 14.2601 17.8584 14.765C17.9331 15.8021 18.2192 17.0072 18.5056 17.7997L20.3865 17.1199ZM19.4461 14C19.5432 14 19.5173 14.0191 19.465 13.9799C19.4303 13.9538 19.4569 13.9538 19.5188 14.0932C19.5831 14.238 19.6456 14.438 19.7339 14.7494C19.8166 15.0411 19.9175 15.413 20.0505 15.8145L21.949 15.1855C21.8335 14.837 21.7481 14.5214 21.658 14.2038C21.5735 13.9057 21.4767 13.5745 21.3468 13.2818C21.2145 12.9837 21.012 12.6399 20.6645 12.3795C20.2995 12.1059 19.8773 12 19.4461 12L19.4461 14ZM20.0505 15.8145C20.2445 16.4 20.2753 17.1272 20.2893 17.8323C20.2955 18.1438 20.2988 18.5101 20.3327 18.7862C20.3487 18.9155 20.382 19.1325 20.4818 19.3418C20.5891 19.5665 20.8965 20 21.4967 20L21.4967 18C22 18 22.2346 18.371 22.2869 18.4805C22.3317 18.5745 22.3278 18.6235 22.3178 18.5419C22.2998 18.3962 22.2963 18.1687 22.2889 17.7927C22.2756 17.1228 22.252 16.1 21.949 15.1855L20.0505 15.8145ZM21.4967 20C21.7484 20 22.0218 19.9415 22.2754 19.7825C22.5273 19.6245 22.6946 19.4083 22.8022 19.1962C22.9981 18.8097 23.0328 18.3628 23.0328 18L21.0328 18C21.0328 18.128 21.0253 18.2159 21.0162 18.2722C21.0067 18.3315 20.9998 18.3283 21.0183 18.2918C21.0404 18.2483 21.098 18.1601 21.2129 18.088C21.3297 18.0148 21.439 18 21.4967 18L21.4967 20ZM23.0328 18C23.0328 17.9761 23.0352 17.9713 23.033 17.9807C23.0305 17.9912 23.0238 18.0136 23.008 18.0416L21.2665 17.0581C21.0929 17.3654 21.0328 17.6937 21.0328 18L23.0328 18ZM23.008 18.0416C22.9541 18.137 22.887 18.1485 22.9437 18.1286C23.0176 18.1026 23.1813 18.0694 23.4846 18.0694L23.4846 16.0694C22.7465 16.0694 21.7515 16.1993 21.2665 17.0581L23.008 18.0416ZM23.4846 18.0694C23.4356 18.0694 23.3437 18.0546 23.248 17.9929C23.1594 17.9358 23.1202 17.8723 23.1114 17.8566C23.1049 17.8448 23.1152 17.8599 23.1307 17.9224C23.1458 17.9827 23.1595 18.0611 23.1731 18.1646C23.1913 18.3035 23.2244 18.6794 23.2751 18.9116C23.3028 19.0383 23.3611 19.2669 23.5083 19.4819C23.6883 19.7449 24.0176 20 24.4785 20L24.4785 18C24.8152 18 25.051 18.1948 25.1587 18.3522C25.2336 18.4616 25.2409 18.5394 25.2291 18.4851C25.2008 18.3553 25.2012 18.2485 25.1562 17.9048C25.1238 17.6575 25.0608 17.2473 24.8598 16.8855C24.7506 16.6888 24.5839 16.4745 24.3315 16.3118C24.072 16.1446 23.7798 16.0694 23.4846 16.0694V18.0694ZM24.4785 20C24.5335 20 24.7579 20.0072 24.9408 19.9747C25.0589 19.9537 25.229 19.908 25.4021 19.7946C25.5857 19.6743 25.7157 19.5156 25.8012 19.3505C25.9413 19.0802 25.9586 18.7901 25.9662 18.6498C25.9758 18.4734 25.9755 18.2479 25.9755 18L23.9755 18C23.9755 18.2726 23.9751 18.4323 23.9692 18.541C23.9664 18.5926 23.9635 18.6055 23.9651 18.5964C23.9663 18.5898 23.9783 18.5213 24.0255 18.4303C24.08 18.3251 24.1711 18.2101 24.3062 18.1216C24.4307 18.04 24.5425 18.0142 24.5908 18.0056C24.6343 17.9978 24.656 17.9993 24.6234 17.9999C24.5884 18.0006 24.5581 18 24.4785 18V20ZM25.9755 18C25.9755 17.9045 25.9809 17.8443 25.9861 17.81C25.9913 17.7755 25.994 17.7818 25.9811 17.8118C25.9664 17.8458 25.9356 17.9005 25.8799 17.9561C25.8239 18.0119 25.766 18.0455 25.7237 18.0636C25.6861 18.0797 25.6683 18.0804 25.6879 18.0773C25.7077 18.0742 25.7465 18.0701 25.8159 18.0679C25.8851 18.0657 25.9668 18.0657 26.0732 18.0666C26.1737 18.0676 26.2999 18.0694 26.4302 18.0694L26.4302 16.0694C26.2311 16.0694 25.9523 16.0624 25.7513 16.0689C25.5437 16.0756 25.2361 16.0968 24.9365 16.225C24.5811 16.3772 24.305 16.6483 24.1449 17.0191C24.0067 17.3392 23.9755 17.6872 23.9755 18L25.9755 18ZM26.4302 18.0694C26.384 18.0694 26.2951 18.0554 26.2018 17.9961C26.1152 17.941 26.0766 17.8797 26.0681 17.8647C26.0618 17.8537 26.0724 17.8693 26.0887 17.932C26.1045 17.9927 26.1191 18.0713 26.1339 18.1754C26.1541 18.3175 26.1912 18.6916 26.2481 18.9303C26.2792 19.0604 26.3435 19.2902 26.4988 19.5042C26.6879 19.7649 27.0166 20 27.4603 20L27.4603 18C27.7746 18 28.0052 18.1747 28.1177 18.3299C28.1964 18.4383 28.2057 18.5173 28.1936 18.4663C28.1642 18.3431 28.1624 18.2346 28.114 17.894C28.079 17.6476 28.012 17.2378 27.8074 16.8774C27.6961 16.6814 27.5279 16.4693 27.2754 16.3086C27.0162 16.1437 26.7249 16.0694 26.4302 16.0694V18.0694ZM27.4603 20C27.6903 20 27.9643 19.9418 28.2111 19.7561C28.4524 19.5744 28.5728 19.3421 28.6326 19.1669C28.6899 18.9994 28.7057 18.8444 28.7119 18.7463C28.7182 18.6455 28.7169 18.5471 28.7163 18.4898C28.7156 18.418 28.7156 18.3895 28.7167 18.3683C28.7179 18.3449 28.7186 18.3863 28.6967 18.4561C28.673 18.5315 28.6064 18.6909 28.4364 18.826C28.2571 18.9685 28.0689 19 27.9572 19L27.9572 17C27.7213 17 27.4406 17.0628 27.1925 17.2599C26.9536 17.4497 26.8419 17.6873 26.7887 17.8564C26.7373 18.0199 26.7242 18.1707 26.7194 18.2645C26.7144 18.3605 26.7159 18.457 26.7165 18.5102C26.7171 18.5779 26.7168 18.6045 26.7158 18.6209C26.7146 18.64 26.7147 18.5944 26.74 18.5206C26.7678 18.4391 26.8398 18.2849 27.0085 18.158C27.1826 18.027 27.3596 18 27.4603 18L27.4603 20ZM27.9572 19C28.0418 19 27.9964 19.0105 27.9186 18.9762C27.8128 18.9295 27.7676 18.8594 27.7684 18.8609C27.7818 18.8847 27.8336 18.9959 27.878 19.2772C27.9214 19.5522 27.9512 19.9452 27.9512 20.5L29.9512 20.5C29.9512 19.3195 29.8369 18.4603 29.5127 17.8824C29.3272 17.5517 29.0645 17.2957 28.7258 17.1463C28.4151 17.0092 28.1211 17 27.9572 17V19ZM27.9512 20.5C27.9512 21.1063 27.9693 21.5692 27.9834 21.928C27.9982 22.3031 28.0054 22.5128 27.9955 22.6778C27.9873 22.8141 27.9687 22.8826 27.9398 22.95C27.9029 23.0364 27.8294 23.165 27.6525 23.4023L29.256 24.5977C29.467 24.3145 29.6497 24.0381 29.7786 23.7367C29.9157 23.4162 29.9729 23.1139 29.9919 22.7981C30.0092 22.5111 29.9952 22.1873 29.9819 21.8493C29.9679 21.4949 29.9512 21.0648 29.9512 20.5L27.9512 20.5ZM27.6525 23.4023C27.2644 23.9228 26.8917 24.4228 26.616 24.7927C26.4781 24.9777 26.3645 25.1301 26.2854 25.2362C26.2458 25.2893 26.2149 25.3308 26.1938 25.3591C26.1833 25.3732 26.1752 25.384 26.1698 25.3913C26.1671 25.395 26.165 25.3977 26.1636 25.3996C26.1629 25.4005 26.1624 25.4012 26.1621 25.4016C26.1619 25.4019 26.1618 25.402 26.1617 25.4022C26.1617 25.4022 26.1616 25.4023 26.1616 25.4023C26.1616 25.4023 26.1616 25.4023 26.1616 25.4023C26.1616 25.4023 26.1616 25.4023 26.9633 26C27.7651 26.5977 27.7651 26.5977 27.7651 26.5976C27.7651 26.5976 27.7651 26.5976 27.7651 26.5976C27.7651 26.5976 27.7652 26.5975 27.7652 26.5975C27.7653 26.5974 27.7654 26.5972 27.7656 26.597C27.7659 26.5965 27.7664 26.5958 27.7671 26.5949C27.7685 26.593 27.7706 26.5903 27.7733 26.5866C27.7787 26.5794 27.7868 26.5685 27.7973 26.5544C27.8184 26.5262 27.8493 26.4846 27.8889 26.4316C27.968 26.3254 28.0816 26.173 28.2195 25.988C28.4952 25.6182 28.8679 25.1182 29.256 24.5977L27.6525 23.4023ZM26.9633 26C25.9633 26 25.9633 25.9997 25.9633 25.9995C25.9633 25.9994 25.9633 25.9992 25.9633 25.999C25.9633 25.9987 25.9633 25.9984 25.9633 25.9981C25.9633 25.9975 25.9633 25.997 25.9633 25.9965C25.9633 25.9955 25.9633 25.9948 25.9633 25.9943C25.9633 25.9932 25.9633 25.993 25.9633 25.9935C25.9633 25.9945 25.9632 25.9985 25.963 26.0049C25.9625 26.0181 25.9614 26.0401 25.9589 26.0677C25.9536 26.1277 25.944 26.1916 25.9304 26.2424C25.9134 26.3063 25.9088 26.28 25.9574 26.2192C25.9871 26.1821 26.0434 26.1241 26.1338 26.0756C26.2292 26.0245 26.3333 26 26.4302 26V28C26.9292 28 27.297 27.7464 27.5194 27.4683C27.718 27.22 27.8133 26.9437 27.8629 26.7576C27.916 26.5584 27.9397 26.3723 27.9511 26.2448C27.9569 26.1787 27.96 26.1226 27.9615 26.081C27.9623 26.0601 27.9628 26.0426 27.963 26.029C27.9631 26.0222 27.9632 26.0163 27.9633 26.0115C27.9633 26.009 27.9633 26.0069 27.9633 26.005C27.9633 26.004 27.9633 26.0031 27.9633 26.0023C27.9633 26.0019 27.9633 26.0015 27.9633 26.0011C27.9633 26.0009 27.9633 26.0006 27.9633 26.0005C27.9633 26.0003 27.9633 26 26.9633 26ZM26.4302 26C26.6321 26 26.7383 26.1002 26.7147 26.0802C26.6785 26.0496 26.6349 25.9997 26.5018 25.8459C26.3985 25.7265 26.2228 25.5229 26.0005 25.3561C25.7609 25.1766 25.4167 25 24.9755 25L24.9755 27C24.8576 27 24.7902 26.9484 24.8008 26.9564C24.8285 26.9771 24.8761 27.0235 24.9891 27.1541C25.0722 27.2503 25.2377 27.4504 25.4232 27.6073C25.6213 27.7748 25.9618 28 26.4302 28L26.4302 26ZM24.9755 25C24.1149 25 23.6053 25.645 23.4054 25.943C23.2824 26.1265 23.1933 26.3029 23.1357 26.4296C23.1062 26.4943 23.0834 26.5496 23.0672 26.5909C23.059 26.6117 23.0524 26.6291 23.0474 26.6427C23.0448 26.6496 23.0427 26.6555 23.041 26.6603C23.0401 26.6628 23.0393 26.665 23.0386 26.6669C23.0383 26.6679 23.038 26.6688 23.0377 26.6696C23.0375 26.6701 23.0374 26.6705 23.0373 26.6709C23.0372 26.671 23.0371 26.6713 23.0371 26.6714C23.037 26.6717 23.0369 26.672 23.9815 27C24.9262 27.328 24.9261 27.3283 24.926 27.3286C24.926 27.3286 24.9259 27.3289 24.9258 27.3291C24.9257 27.3294 24.9256 27.3297 24.9255 27.33C24.9253 27.3306 24.9251 27.3311 24.9249 27.3316C24.9246 27.3326 24.9243 27.3334 24.9241 27.3339C24.9237 27.335 24.9236 27.3353 24.9238 27.3348C24.9242 27.3338 24.9257 27.3298 24.9283 27.3232C24.9335 27.3098 24.9429 27.2869 24.9561 27.2579C24.9838 27.1971 25.0219 27.1235 25.0665 27.057C25.0883 27.0245 25.1082 26.9988 25.1252 26.9796C25.1425 26.9601 25.152 26.9527 25.152 26.9527C25.1505 26.9539 25.0865 27 24.9755 27L24.9755 25ZM23.9815 26H20.9998V28H23.9815V26ZM27.9633 25V21H25.9633V25H27.9633ZM26.9633 20H25.9694V22H26.9633V20ZM24.9694 21V25H26.9694V21H24.9694ZM25.9694 26H26.9633V24H25.9694V26ZM22.9815 24C22.9815 24.3159 23.088 24.7033 23.2084 24.9894C23.2725 25.1419 23.37 25.3375 23.5129 25.5131C23.6268 25.6531 23.948 26 24.4785 26V24C24.6815 24 24.8341 24.0708 24.9218 24.1272C25.0053 24.1809 25.0504 24.2338 25.064 24.2506C25.0888 24.281 25.0786 24.2774 25.0518 24.2138C25.029 24.1594 25.0079 24.0943 24.9936 24.0352C24.9867 24.0066 24.9829 23.9856 24.9811 23.9736C24.9788 23.9583 24.9815 23.9691 24.9815 24H22.9815ZM24.4785 26C25.0006 26 25.3216 25.6667 25.444 25.518C25.5904 25.3402 25.6887 25.1421 25.7528 24.9883C25.8744 24.6969 25.9755 24.3121 25.9755 24H23.9755C23.9755 23.9599 23.9797 23.9727 23.9631 24.043C23.9492 24.102 23.9289 24.1658 23.907 24.2183C23.8812 24.2801 23.8724 24.2803 23.8999 24.247C23.9151 24.2284 23.9616 24.1751 24.0462 24.1219C24.1356 24.0656 24.2843 24 24.4785 24V26ZM25.9755 24V22H23.9755V24H25.9755ZM25.9755 22C25.9755 21.6841 25.869 21.2967 25.7486 21.0106C25.6845 20.8581 25.587 20.6625 25.4441 20.4869C25.3302 20.3469 25.009 20 24.4785 20V22C24.2755 22 24.1229 21.9292 24.0352 21.8728C23.9517 21.8191 23.9066 21.7662 23.893 21.7494C23.8682 21.719 23.8784 21.7226 23.9052 21.7862C23.928 21.8406 23.9491 21.9057 23.9634 21.9648C23.9703 21.9934 23.9741 22.0144 23.9759 22.0264C23.9782 22.0417 23.9755 22.0309 23.9755 22H25.9755ZM24.4785 20C23.9564 20 23.6354 20.3333 23.513 20.482C23.3666 20.6598 23.2683 20.8579 23.2042 21.0117C23.0826 21.3031 22.9815 21.6879 22.9815 22H24.9815C24.9815 22.0401 24.9773 22.0273 24.9939 21.957C25.0078 21.898 25.0281 21.8342 25.05 21.7817C25.0758 21.7199 25.0846 21.7197 25.0571 21.753C25.0419 21.7716 24.9954 21.8249 24.9108 21.8781C24.8214 21.9344 24.6726 22 24.4785 22V20ZM22.9815 22V24H24.9815V22H22.9815ZM20.9937 24C20.9937 24.3159 21.1001 24.7033 21.2205 24.9894C21.2847 25.1419 21.3821 25.3375 21.525 25.5131C21.639 25.6531 21.9601 26 22.4906 26V24C22.6937 24 22.8463 24.0708 22.934 24.1272C23.0174 24.1809 23.0625 24.2338 23.0762 24.2506C23.1009 24.281 23.0908 24.2774 23.064 24.2138C23.0411 24.1594 23.0201 24.0943 23.0058 24.0352C22.9989 24.0066 22.995 23.9856 22.9932 23.9736C22.9909 23.9583 22.9937 23.9691 22.9937 24H20.9937ZM22.4906 26C23.0127 26 23.3337 25.6667 23.4562 25.518C23.6025 25.3402 23.7008 25.1421 23.765 24.9883C23.8865 24.6969 23.9876 24.3121 23.9876 24H21.9876C21.9876 23.9599 21.9918 23.9727 21.9752 24.043C21.9613 24.102 21.941 24.1658 21.9191 24.2183C21.8934 24.2801 21.8846 24.2803 21.912 24.247C21.9273 24.2284 21.9737 24.1751 22.0583 24.1219C22.1478 24.0656 22.2965 24 22.4906 24V26ZM23.9876 24V22H21.9876V24H23.9876ZM23.9876 22C23.9876 21.6841 23.8812 21.2967 23.7608 21.0106C23.6966 20.8581 23.5992 20.6625 23.4563 20.4869C23.3423 20.3469 23.0211 20 22.4906 20V22C22.2876 22 22.135 21.9292 22.0473 21.8728C21.9639 21.8191 21.9188 21.7662 21.9051 21.7494C21.8804 21.719 21.8905 21.7226 21.9173 21.7862C21.9402 21.8406 21.9612 21.9057 21.9755 21.9648C21.9824 21.9934 21.9863 22.0144 21.9881 22.0264C21.9903 22.0417 21.9876 22.0309 21.9876 22H23.9876ZM22.4906 20C21.9686 20 21.6476 20.3333 21.5251 20.482C21.3788 20.6598 21.2805 20.8579 21.2163 21.0117C21.0948 21.3031 20.9937 21.6879 20.9937 22H22.9937C22.9937 22.0401 22.9895 22.0273 23.006 21.957C23.02 21.898 23.0403 21.8342 23.0621 21.7817C23.0879 21.7199 23.0967 21.7197 23.0693 21.753C23.054 21.7716 23.0076 21.8249 22.923 21.8781C22.8335 21.9344 22.6848 22 22.4906 22V20ZM20.9937 22V24H22.9937V22H20.9937Z" fill="black" mask="url(#path-2-outside-1_0_1)"/>
</g>
<defs>
<filter id="filter0_d_0_1" x="12.9999" y="11" width="19" height="20" filterUnits="userSpaceOnUse" color-interpolation-filters="sRGB">
<feFlood flood-opacity="0" result="BackgroundImageFix"/>
<feColorMatrix in="SourceAlpha" type="matrix" values="0 0 0 0 0 0 0 0 0 0 0 0 0 0 0 0 0 0 127 0" result="hardAlpha"/>
<feOffset dy="1"/>
<feGaussianBlur stdDeviation="1"/>
<feColorMatrix type="matrix" values="0 0 0 0 0 0 0 0 0 0 0 0 0 0 0 0 0 0 1 0"/>
<feBlend mode="normal" in2="BackgroundImageFix" result="effect1_dropShadow_0_1"/>
<feBlend mode="normal" in="SourceGraphic" in2="effect1_dropShadow_0_1" result="shape"/>
</filter>
</defs>
</svg>
