<svg width="236" height="26" viewBox="0 0 236 26" fill="none" xmlns="http://www.w3.org/2000/svg">
<path fill-rule="evenodd" clip-rule="evenodd" d="M75.6512 23.3043C75.6512 23.8112 75.3959 24.0647 74.8852 24.0647H65.8883C65.671 24.0647 65.4944 24.0013 65.3586 23.8746C65.2228 23.7479 65.1549 23.5688 65.1549 23.3374C65.1549 23.139 65.201 22.9793 65.2934 22.858C65.3858 22.7368 65.5297 22.6377 65.7253 22.5605L66.4262 22.3456C66.6 22.2906 66.7358 22.1859 66.8336 22.0316C66.9314 21.8773 66.9803 21.6569 66.9803 21.3704V11.8167C66.9803 11.6625 66.9423 11.533 66.8662 11.4283C66.7902 11.3236 66.6489 11.2272 66.4425 11.139L65.4971 10.825C65.2472 10.7038 65.0679 10.5743 64.9593 10.4366C64.8506 10.2988 64.7963 10.1308 64.7963 9.93243C64.7963 9.73408 64.8642 9.57155 65 9.44482L65.0534 9.40027C65.1835 9.30325 65.3532 9.25474 65.5623 9.25474H66.9925L66.9813 9.15815C66.9508 8.96497 66.8744 8.77953 66.7521 8.60185C66.5891 8.36493 66.4044 8.09772 66.198 7.8002C65.9915 7.50268 65.8068 7.1473 65.6438 6.73408C65.4808 6.32086 65.3993 5.81122 65.3993 5.20515C65.3993 3.76163 65.8883 2.60736 66.8662 1.74234C67.8441 0.877331 69.235 0.444824 71.0387 0.444824C72.2013 0.444824 73.1657 0.632152 73.9317 1.00681C74.6977 1.38146 75.2709 1.88009 75.6512 2.50268C76.0315 3.12527 76.2217 3.80571 76.2217 4.544C76.2217 5.41452 75.9962 6.06741 75.5453 6.50268C75.0943 6.93794 74.5157 7.15557 73.8095 7.15557C73.0271 7.15557 72.3969 6.90212 71.9188 6.39524C71.4407 5.88835 71.2017 5.21617 71.2017 4.37871V2.90763C71.2017 2.52196 71.1256 2.23821 70.9735 2.05639C70.8214 1.87458 70.5877 1.78367 70.2726 1.78367C69.8706 1.78367 69.5664 1.92141 69.3599 2.19689C69.1535 2.47237 69.0502 2.86907 69.0502 3.38697C69.0502 3.9159 69.1725 4.41177 69.417 4.87458C69.6614 5.33739 69.963 5.76989 70.3215 6.1721C70.6801 6.5743 71.0387 6.95998 71.3973 7.32912C71.7558 7.69827 72.0573 8.0619 72.3018 8.42003L72.3715 8.52739C72.5035 8.74193 72.5915 8.95549 72.6355 9.16805L72.6504 9.25474H75.0645C75.3144 9.25474 75.5072 9.30708 75.6431 9.41177C75.7789 9.51645 75.8468 9.67898 75.8468 9.89937C75.8468 10.2299 75.7055 10.4999 75.423 10.7093C75.1405 10.9187 74.695 11.0233 74.0865 11.0233H72.9293V21.3209C72.9293 21.6294 72.9755 21.8663 73.0679 22.0316C73.1602 22.1969 73.3096 22.2961 73.5161 22.3291L74.9178 22.544C75.1677 22.5771 75.3524 22.6569 75.4719 22.7837C75.5914 22.9104 75.6512 23.0839 75.6512 23.3043ZM43.5591 23.6844C42.5812 24.1583 41.4403 24.3952 40.1364 24.3952C38.7564 24.3952 37.5205 24.1032 36.4284 23.5191C35.3364 22.9351 34.4753 22.0894 33.8451 20.9819C33.2149 19.8745 32.8998 18.5274 32.8998 16.9406C32.8998 15.4089 33.2285 14.0398 33.8859 12.8332C34.5432 11.6266 35.4587 10.6734 36.6322 9.97368C37.8057 9.27396 39.1748 8.9241 40.7394 8.9241C42.0759 8.9241 43.2033 9.12244 44.1214 9.51914C45.0396 9.91583 45.7404 10.453 46.2239 11.1307C46.7075 11.8084 46.9492 12.566 46.9492 13.4034C46.9492 14.285 46.6966 14.9764 46.1913 15.4778C45.6861 15.9792 44.9988 16.2299 44.1296 16.2299C43.2386 16.2299 42.5622 15.9737 42.1004 15.4613C41.6386 14.9489 41.4077 14.2464 41.4077 13.3538V12.296C41.4077 11.7561 41.3099 11.3483 41.1143 11.0729C40.9187 10.7974 40.6417 10.6596 40.2831 10.6596C39.9245 10.6596 39.6013 10.8056 39.3133 11.0976C39.0254 11.3897 38.8026 11.8277 38.6451 12.4117C38.4875 12.9957 38.4087 13.7175 38.4087 14.577C38.4087 15.8111 38.5907 16.847 38.9547 17.6844C39.3187 18.5219 39.8159 19.15 40.4461 19.5687C41.0763 19.9875 41.7934 20.1968 42.5975 20.1968C43.4016 20.1968 44.0752 20.0784 44.6185 19.8415C45.1618 19.6045 45.5801 19.2051 45.8735 18.6431C46.0365 18.4888 46.1642 18.3897 46.2565 18.3456C46.3489 18.3015 46.4385 18.2795 46.5255 18.2795C46.6341 18.2905 46.7238 18.3428 46.7944 18.4365C46.865 18.5302 46.8949 18.6762 46.884 18.8745C46.7971 19.9544 46.4657 20.9076 45.8898 21.734C45.3139 22.5605 44.537 23.2106 43.5591 23.6844ZM60.1267 23.3538C58.9043 24.026 57.4836 24.3621 55.8646 24.3621C54.2891 24.3621 52.9064 24.0343 51.7166 23.3786C50.5268 22.723 49.6005 21.8167 48.9377 20.6596C48.2749 19.5026 47.9435 18.1638 47.9435 16.6431C47.9435 15.1886 48.2912 13.88 48.9866 12.7175C49.682 11.5549 50.6436 10.6321 51.8714 9.94889C53.0993 9.26569 54.5118 8.9241 56.1091 8.9241C57.6955 8.9241 59.0809 9.25467 60.2652 9.91583C61.4496 10.577 62.3732 11.4916 63.036 12.6596C63.6988 13.8277 64.0302 15.1775 64.0302 16.7092C64.0302 18.1638 63.6853 19.4668 62.9953 20.6183C62.3053 21.7698 61.3491 22.6817 60.1267 23.3538ZM57.1033 22.6434C56.7665 22.7095 56.4378 22.5608 56.1172 22.1971C55.7967 21.8335 55.4925 21.2219 55.2045 20.3624C54.9166 19.5029 54.6422 18.3734 54.3814 16.974C54.1315 15.5745 53.9903 14.423 53.9577 13.5194C53.9251 12.6159 53.9903 11.9327 54.1533 11.4699C54.3162 11.007 54.5662 10.7371 54.903 10.6599C55.2398 10.5938 55.5685 10.7426 55.8891 11.1062C56.2096 11.4699 56.5166 12.0814 56.8099 12.9409C57.1033 13.8004 57.3804 14.9299 57.6412 16.3294C57.902 17.7288 58.0459 18.8831 58.0731 19.7922C58.1003 20.7013 58.0296 21.3872 57.8612 21.85C57.6928 22.3128 57.4402 22.5773 57.1033 22.6434ZM86.2616 24.0647C86.7723 24.0647 87.0277 23.8112 87.0277 23.3043C87.0277 23.0839 86.9679 22.9104 86.8484 22.7837C86.7289 22.6569 86.5442 22.5771 86.2942 22.544L84.8926 22.3291C84.6861 22.2961 84.5367 22.1969 84.4443 22.0316C84.352 21.8663 84.3058 21.6294 84.3058 21.3209V11.0233H85.463C86.0715 11.0233 86.517 10.9187 86.7995 10.7093C87.082 10.4999 87.2233 10.2299 87.2233 9.89937C87.2233 9.67898 87.1554 9.51645 87.0195 9.41177C86.8837 9.30708 86.6908 9.25474 86.4409 9.25474H84.0269L84.012 9.16805C83.968 8.95549 83.88 8.74193 83.748 8.52739L83.6783 8.42003C83.4338 8.0619 83.1323 7.69827 82.7737 7.32912C82.4152 6.95998 82.0566 6.5743 81.698 6.1721C81.3394 5.76989 81.0379 5.33739 80.7934 4.87458C80.549 4.41177 80.4267 3.9159 80.4267 3.38697C80.4267 2.86907 80.5299 2.47237 80.7364 2.19689C80.9428 1.92141 81.2471 1.78367 81.6491 1.78367C81.9642 1.78367 82.1978 1.87458 82.35 2.05639C82.5021 2.23821 82.5781 2.52196 82.5781 2.90763V4.37871C82.5781 5.21617 82.8172 5.88835 83.2953 6.39524C83.7734 6.90212 84.4036 7.15557 85.1859 7.15557C85.8922 7.15557 86.4708 6.93794 86.9217 6.50268C87.3727 6.06741 87.5981 5.41452 87.5981 4.544C87.5981 3.80571 87.408 3.12527 87.0277 2.50268C86.6474 1.88009 86.0742 1.38146 85.3082 1.00681C84.5421 0.632152 83.5778 0.444824 82.4152 0.444824C80.6114 0.444824 79.2206 0.877331 78.2427 1.74234C77.2648 2.60736 76.7758 3.76163 76.7758 5.20515C76.7758 5.81122 76.8573 6.32086 77.0203 6.73408C77.1833 7.1473 77.368 7.50268 77.5745 7.8002C77.7809 8.09772 77.9656 8.36493 78.1286 8.60185C78.2508 8.77953 78.3272 8.96497 78.3578 9.15815L78.369 9.25474H76.9388C76.7296 9.25474 76.56 9.30325 76.4299 9.40027L76.3765 9.44482C76.2407 9.57155 76.1728 9.73408 76.1728 9.93243C76.1728 10.1308 76.2271 10.2988 76.3358 10.4366C76.4444 10.5743 76.6237 10.7038 76.8736 10.825L77.8189 11.139C78.0254 11.2272 78.1666 11.3236 78.2427 11.4283C78.3188 11.533 78.3568 11.6625 78.3568 11.8167V21.3704C78.3568 21.6569 78.3079 21.8773 78.2101 22.0316C78.1123 22.1859 77.9765 22.2906 77.8026 22.3456L77.1018 22.5605C76.9062 22.6377 76.7622 22.7368 76.6699 22.858C76.5775 22.9793 76.5313 23.139 76.5313 23.3374C76.5313 23.5688 76.5992 23.7479 76.7351 23.8746C76.8709 24.0013 77.0475 24.0647 77.2648 24.0647H86.2616ZM99.0235 23.5853C97.9695 24.1252 96.7526 24.3952 95.3726 24.3952C93.8514 24.3952 92.5149 24.0784 91.3631 23.4448C90.2114 22.8111 89.3122 21.9241 88.6657 20.7836C88.0192 19.6431 87.6959 18.3235 87.6959 16.8249C87.6959 15.2492 88.0083 13.869 88.6331 12.6844C89.2579 11.4999 90.1625 10.577 91.3468 9.91583C92.5312 9.25467 93.9546 8.9241 95.6171 8.9241C97.0296 8.9241 98.2466 9.20233 99.268 9.75881C100.289 10.3153 101.074 11.0701 101.623 12.0233C102.172 12.9764 102.446 14.037 102.446 15.2051C102.446 15.712 102.31 16.1114 102.039 16.4034L101.974 16.4682C101.706 16.717 101.337 16.8415 100.865 16.8415H93.4145L93.4305 16.9177C93.6282 17.8252 93.9659 18.5518 94.4436 19.0976C95.2585 20.0288 96.3451 20.4943 97.7033 20.4943C98.5726 20.4943 99.3413 20.296 100.01 19.8993C100.678 19.5026 101.126 18.9516 101.354 18.2464C101.485 18.1032 101.601 18.0067 101.705 17.9572C101.808 17.9076 101.897 17.8828 101.974 17.8828C102.082 17.8828 102.175 17.9269 102.251 18.015C102.327 18.1032 102.365 18.2519 102.365 18.4613C102.365 19.5412 102.071 20.5302 101.485 21.4282C100.898 22.3263 100.077 23.0453 99.0235 23.5853ZM93.2444 15.5161C93.2289 15.2625 93.2212 14.9989 93.2212 14.7253C93.2212 13.6895 93.2973 12.8741 93.4494 12.2791C93.6015 11.684 93.7971 11.2625 94.0361 11.0146C94.2752 10.7667 94.5414 10.6427 94.8348 10.6427C95.2151 10.6427 95.5709 10.9678 95.9023 11.6179C96.2337 12.268 96.3994 13.3479 96.3994 14.8576C96.3994 15.3204 96.193 15.5518 95.7801 15.5518H93.2465L93.2444 15.5161ZM114.605 23.5853C113.551 24.1252 112.334 24.3952 110.954 24.3952C109.433 24.3952 108.096 24.0784 106.945 23.4448C105.793 22.8111 104.894 21.9241 104.247 20.7836C103.601 19.6431 103.277 18.3235 103.277 16.8249C103.277 15.2492 103.59 13.869 104.215 12.6844C104.839 11.4999 105.744 10.577 106.928 9.91583C108.113 9.25467 109.536 8.9241 111.199 8.9241C112.611 8.9241 113.828 9.20233 114.85 9.75881C115.871 10.3153 116.656 11.0701 117.205 12.0233C117.753 12.9764 118.028 14.037 118.028 15.2051C118.028 15.712 117.892 16.1114 117.62 16.4034L117.555 16.4682C117.288 16.717 116.918 16.8415 116.447 16.8415H108.996L109.012 16.9177C109.21 17.8252 109.547 18.5518 110.025 19.0976C110.84 20.0288 111.927 20.4943 113.285 20.4943C114.154 20.4943 114.923 20.296 115.591 19.8993C116.259 19.5026 116.708 18.9516 116.936 18.2464C117.066 18.1032 117.183 18.0067 117.286 17.9572C117.389 17.9076 117.479 17.8828 117.555 17.8828C117.664 17.8828 117.756 17.9269 117.832 18.015C117.908 18.1032 117.946 18.2519 117.946 18.4613C117.946 19.5412 117.653 20.5302 117.066 21.4282C116.479 22.3263 115.659 23.0453 114.605 23.5853ZM108.826 15.5161C108.81 15.2625 108.803 14.9989 108.803 14.7253C108.803 13.6895 108.879 12.8741 109.031 12.2791C109.183 11.684 109.379 11.2625 109.618 11.0146C109.857 10.7667 110.123 10.6427 110.416 10.6427C110.797 10.6427 111.152 10.9678 111.484 11.6179C111.815 12.268 111.981 13.3479 111.981 14.8576C111.981 15.3204 111.774 15.5518 111.362 15.5518H108.828L108.826 15.5161ZM128.5 23.858C128.364 23.9957 128.166 24.0646 127.905 24.0646H119.755C119.516 24.0646 119.329 23.9985 119.193 23.8662C119.057 23.734 118.989 23.5522 118.989 23.3208C118.989 23.1445 119.03 22.9985 119.112 22.8828C119.193 22.7671 119.304 22.6596 119.446 22.5605L119.821 22.4117C119.962 22.3456 120.06 22.2409 120.114 22.0976C120.168 21.9544 120.195 21.7175 120.195 21.3869V12.9902C120.195 12.7257 120.166 12.5357 120.106 12.42C120.046 12.3043 119.946 12.2134 119.804 12.1472L119.381 12.0976C119.228 12.0095 119.117 11.9158 119.046 11.8167C118.976 11.7175 118.94 11.5908 118.94 11.4365C118.94 11.2602 118.995 11.1032 119.103 10.9654C119.212 10.8277 119.397 10.7092 119.658 10.61L124.286 9.2712C124.558 9.16101 124.786 9.08388 124.971 9.0398C125.156 8.99572 125.313 8.97368 125.444 8.97368C125.628 8.97368 125.767 9.0398 125.859 9.17203L125.889 9.21998C125.965 9.3582 126.018 9.57913 126.047 9.88277L126.171 12.4512L126.199 12.3564C126.254 12.1775 126.315 12.0058 126.381 11.8415C126.777 10.8552 127.302 10.1224 127.954 9.6431C128.606 9.16377 129.317 8.9241 130.089 8.9241C131.023 8.9241 131.74 9.23815 132.24 9.86625C132.74 10.4943 132.99 11.4475 132.99 12.7257C132.99 13.993 132.729 14.9241 132.208 15.5191C131.686 16.1142 131.012 16.4117 130.187 16.4117C129.383 16.4117 128.788 16.2078 128.402 15.8001C128.016 15.3924 127.812 14.8139 127.791 14.0646L127.774 13.4034C127.764 13.15 127.715 12.9516 127.628 12.8084C127.541 12.6651 127.4 12.5935 127.204 12.5935C127.008 12.5935 126.837 12.6954 126.691 12.8993C126.544 13.1032 126.432 13.4145 126.356 13.8332C126.28 14.2519 126.242 14.7864 126.242 15.4365V21.2547C126.242 21.5632 126.291 21.8084 126.389 21.9902C126.487 22.172 126.639 22.285 126.845 22.3291L128.068 22.577C128.296 22.61 128.459 22.6954 128.557 22.8332C128.655 22.9709 128.703 23.1335 128.703 23.3208C128.703 23.5412 128.635 23.7202 128.5 23.858ZM141.53 24.3621C143.149 24.3621 144.57 24.026 145.793 23.3538C147.015 22.6817 147.971 21.7698 148.661 20.6183C149.351 19.4668 149.696 18.1638 149.696 16.7092C149.696 15.1775 149.365 13.8277 148.702 12.6596C148.039 11.4916 147.115 10.577 145.931 9.91583C144.747 9.25467 143.361 8.9241 141.775 8.9241C140.178 8.9241 138.765 9.26569 137.537 9.94889C136.309 10.6321 135.348 11.5549 134.652 12.7175C133.957 13.88 133.609 15.1886 133.609 16.6431C133.609 18.1638 133.941 19.5026 134.604 20.6596C135.266 21.8167 136.193 22.723 137.382 23.3786C138.572 24.0343 139.955 24.3621 141.53 24.3621ZM141.783 22.1971C142.104 22.5608 142.432 22.7095 142.769 22.6434C143.106 22.5773 143.359 22.3128 143.527 21.85C143.695 21.3872 143.766 20.7013 143.739 19.7922C143.712 18.8831 143.568 17.7288 143.307 16.3294C143.046 14.9299 142.769 13.8004 142.476 12.9409C142.182 12.0814 141.875 11.4699 141.555 11.1062C141.234 10.7426 140.906 10.5938 140.569 10.6599C140.232 10.7371 139.982 11.007 139.819 11.4699C139.656 11.9327 139.591 12.6159 139.624 13.5194C139.656 14.423 139.797 15.5745 140.047 16.974C140.308 18.3734 140.582 19.5029 140.87 20.3624C141.158 21.2219 141.463 21.8335 141.783 22.1971ZM162.621 24.3952C163.534 24.3952 164.283 24.2271 164.87 23.891C165.457 23.555 165.894 23.1555 166.182 22.6927C166.47 22.2299 166.614 21.8056 166.614 21.42C166.614 21.2547 166.579 21.1169 166.508 21.0067C166.438 20.8965 166.342 20.8415 166.223 20.8415C166.169 20.8415 166.12 20.8525 166.076 20.8745C166.033 20.8965 165.995 20.9296 165.962 20.9737C165.908 21.172 165.824 21.3098 165.71 21.3869C165.595 21.464 165.473 21.5026 165.343 21.5026C165.158 21.5026 165.02 21.4392 164.927 21.3125C164.835 21.1858 164.789 21.0178 164.789 20.8084V13.5026C164.789 12.0481 164.297 10.9213 163.314 10.1224C162.33 9.32355 160.79 8.9241 158.693 8.9241C157.063 8.9241 155.702 9.12795 154.61 9.53567C153.518 9.94338 152.698 10.464 152.149 11.0976C151.6 11.7313 151.326 12.3786 151.326 13.0398C151.326 13.745 151.53 14.2822 151.937 14.6514C152.345 15.0205 152.934 15.2051 153.706 15.2051C154.651 15.2051 155.395 14.9489 155.938 14.4365C156.482 13.9241 156.753 13.2602 156.753 12.4448V11.1886C156.753 10.88 156.849 10.6403 157.039 10.4696C157.229 10.2988 157.465 10.2134 157.748 10.2134C158.052 10.2134 158.294 10.3263 158.473 10.5522C158.652 10.7781 158.742 11.0839 158.742 11.4696L158.741 16.2877L158.655 16.2689C158.393 16.2183 158.089 16.1893 157.744 16.1821L157.568 16.1803C155.232 16.1803 153.491 16.577 152.345 17.3704C151.198 18.1638 150.625 19.2712 150.625 20.6927C150.625 21.7726 151.019 22.6596 151.807 23.3538C152.595 24.0481 153.64 24.3952 154.944 24.3952C155.922 24.3952 156.835 24.1941 157.682 23.7919C158.318 23.4902 158.835 23.094 159.232 22.6033L159.254 22.5747L159.278 22.6487C159.404 23.0059 159.633 23.326 159.967 23.6089L160.07 23.6927C160.673 24.161 161.523 24.3952 162.621 24.3952ZM157.006 21.2798C157.272 21.6379 157.623 21.817 158.057 21.817L158.151 21.8138C158.336 21.8009 158.515 21.7492 158.688 21.6588L158.741 21.6287V17.3872L158.66 17.3624C158.476 17.3129 158.258 17.2881 158.008 17.2881C157.585 17.2881 157.245 17.4864 156.99 17.8831C156.734 18.2798 156.607 18.8638 156.607 19.6352C156.607 20.3735 156.74 20.9217 157.006 21.2798ZM174.112 24.4448C176.046 24.4448 177.529 23.9985 178.561 23.1059C179.593 22.2134 180.109 20.9957 180.109 19.453C180.109 18.5164 179.936 17.6954 179.588 16.9902C179.24 16.285 178.632 15.6596 177.762 15.1142C176.893 14.5687 175.671 14.0536 174.095 13.5687C173.508 13.3814 173.055 13.1913 172.734 12.9985C172.414 12.8056 172.194 12.599 172.074 12.3786C171.955 12.1583 171.895 11.9213 171.895 11.6679C171.895 11.2932 172.031 10.9902 172.302 10.7588C172.574 10.5274 172.976 10.4117 173.508 10.4117C174.247 10.4117 174.945 10.6596 175.603 11.1555C176.26 11.6514 176.986 12.4999 177.779 13.701C177.985 13.9544 178.192 14.139 178.398 14.2547C178.605 14.3704 178.8 14.4062 178.985 14.3621C179.213 14.296 179.354 14.1445 179.409 13.9076C179.463 13.6707 179.452 13.3318 179.376 12.891L178.952 9.84972C178.909 9.53016 178.827 9.30426 178.708 9.17203C178.588 9.0398 178.431 8.97368 178.235 8.97368C178.061 8.97368 177.844 9.03429 177.583 9.1555C177.322 9.27671 177.064 9.40068 176.809 9.5274C176.554 9.65412 176.361 9.71748 176.23 9.71748C176.111 9.71748 175.934 9.65137 175.701 9.51914C175.467 9.38691 175.138 9.25467 174.715 9.12244C174.291 8.99021 173.742 8.9241 173.068 8.9241C171.949 8.9241 170.941 9.12795 170.045 9.53567C169.149 9.94338 168.442 10.5246 167.926 11.2795C167.41 12.0343 167.152 12.9351 167.152 13.9819C167.152 14.9076 167.345 15.7175 167.731 16.4117C168.116 17.1059 168.706 17.701 169.499 18.1968C170.292 18.6927 171.292 19.0949 172.498 19.4034C173.28 19.6128 173.881 19.8249 174.299 20.0398C174.717 20.2547 175.005 20.4888 175.163 20.7423C175.32 20.9957 175.399 21.2767 175.399 21.5853C175.399 21.993 175.263 22.3291 174.992 22.5935C174.72 22.858 174.307 22.9902 173.753 22.9902C173.231 22.9902 172.734 22.8773 172.262 22.6514C171.789 22.4255 171.303 22.037 170.803 21.4861C170.303 20.9351 169.743 20.1803 169.124 19.2216C168.939 18.9682 168.73 18.7919 168.497 18.6927C168.263 18.5935 168.027 18.599 167.788 18.7092C167.559 18.7974 167.413 18.9847 167.348 19.2712C167.282 19.5577 167.299 19.9103 167.396 20.3291L167.902 23.6183C167.978 23.9489 168.086 24.1693 168.228 24.2795C168.369 24.3897 168.521 24.4448 168.684 24.4448C168.869 24.4448 169.094 24.3842 169.36 24.2629L170.159 23.8993C170.425 23.7781 170.64 23.7175 170.803 23.7175C170.966 23.7175 171.18 23.7781 171.447 23.8993C171.713 24.0205 172.061 24.1417 172.49 24.2629C172.919 24.3842 173.46 24.4448 174.112 24.4448ZM189.563 23.8251C188.846 24.2053 187.998 24.3954 187.02 24.3954C185.368 24.3954 184.127 23.9932 183.296 23.1888C182.465 22.3844 182.049 21.1172 182.049 19.3871V11.9161C182.049 11.6847 182.027 11.5083 181.984 11.3871C181.94 11.2659 181.832 11.1667 181.658 11.0896L180.892 10.8417C180.707 10.7535 180.588 10.6461 180.533 10.5194C180.479 10.3926 180.452 10.2356 180.452 10.0483C180.452 9.81688 180.533 9.6268 180.696 9.47804C180.859 9.32928 181.06 9.2549 181.299 9.2549H182.098C182.196 9.2549 182.299 9.21633 182.408 9.1392C182.516 9.06206 182.663 8.90779 182.848 8.67639L185.863 6.14746C186.08 5.883 186.297 5.6819 186.515 5.54416C186.732 5.40642 186.949 5.33755 187.167 5.33755C187.417 5.33755 187.612 5.41468 187.753 5.56895L187.798 5.62364C187.91 5.77818 187.965 6.00238 187.965 6.29622L187.965 9.2549H191.372C191.611 9.2549 191.796 9.30724 191.926 9.41193C192.056 9.51661 192.122 9.67914 192.122 9.89953C192.122 10.2081 191.986 10.4725 191.714 10.6929L191.653 10.7385C191.38 10.9285 190.965 11.0235 190.41 11.0235H187.965L187.965 18.5607C187.965 19.3871 188.104 19.9987 188.381 20.3954C188.658 20.7921 189.063 20.9904 189.595 20.9904C189.823 20.9904 190.035 20.9409 190.231 20.8417C190.426 20.7425 190.603 20.613 190.761 20.4532C190.918 20.2935 191.068 20.1144 191.209 19.9161C191.35 19.7177 191.486 19.5194 191.616 19.321C191.725 19.2769 191.82 19.2962 191.902 19.3789C191.983 19.4615 192.018 19.6296 192.007 19.883C191.931 20.7756 191.684 21.5607 191.266 22.2384C190.848 22.9161 190.28 23.445 189.563 23.8251ZM200.238 24.3952C201.618 24.3952 202.835 24.1252 203.889 23.5853C204.943 23.0453 205.764 22.3263 206.35 21.4282C206.937 20.5302 207.23 19.5412 207.23 18.4613C207.23 18.2519 207.192 18.1032 207.116 18.015C207.04 17.9269 206.948 17.8828 206.839 17.8828C206.763 17.8828 206.674 17.9076 206.57 17.9572C206.467 18.0067 206.35 18.1032 206.22 18.2464C205.992 18.9516 205.543 19.5026 204.875 19.8993C204.207 20.296 203.438 20.4943 202.569 20.4943C201.211 20.4943 200.124 20.0288 199.309 19.0976C198.832 18.5518 198.494 17.8252 198.296 16.9177L198.28 16.8415H205.731C206.202 16.8415 206.572 16.717 206.84 16.4682L206.904 16.4034C207.176 16.1114 207.312 15.712 207.312 15.2051C207.312 14.037 207.038 12.9764 206.489 12.0233C205.94 11.0701 205.155 10.3153 204.134 9.75881C203.112 9.20233 201.895 8.9241 200.483 8.9241C198.82 8.9241 197.397 9.25467 196.212 9.91583C195.028 10.577 194.124 11.4999 193.499 12.6844C192.874 13.869 192.562 15.2492 192.562 16.8249C192.562 18.3235 192.885 19.6431 193.531 20.7836C194.178 21.9241 195.077 22.8111 196.229 23.4448C197.381 24.0784 198.717 24.3952 200.238 24.3952ZM198.087 14.7253C198.087 14.9989 198.095 15.2625 198.11 15.5161L198.112 15.5518H200.646C201.059 15.5518 201.265 15.3204 201.265 14.8576C201.265 13.3479 201.099 12.268 200.768 11.6179C200.437 10.9678 200.081 10.6427 199.7 10.6427C199.407 10.6427 199.141 10.7667 198.902 11.0146C198.663 11.2625 198.467 11.684 198.315 12.2791C198.163 12.8741 198.087 13.6895 198.087 14.7253ZM217.189 24.0646C217.45 24.0646 217.648 23.9957 217.784 23.858C217.92 23.7202 217.988 23.5412 217.988 23.3208C217.988 23.1335 217.939 22.9709 217.841 22.8332C217.743 22.6954 217.58 22.61 217.352 22.577L216.129 22.3291C215.923 22.285 215.771 22.172 215.673 21.9902C215.575 21.8084 215.526 21.5632 215.526 21.2547V15.4365C215.526 14.7864 215.564 14.2519 215.641 13.8332C215.717 13.4145 215.828 13.1032 215.975 12.8993C216.121 12.6954 216.292 12.5935 216.488 12.5935C216.684 12.5935 216.825 12.6651 216.912 12.8084C216.999 12.9516 217.048 13.15 217.058 13.4034L217.075 14.0646C217.097 14.8139 217.3 15.3924 217.686 15.8001C218.072 16.2078 218.667 16.4117 219.471 16.4117C220.296 16.4117 220.97 16.1142 221.492 15.5191C222.013 14.9241 222.274 13.993 222.274 12.7257C222.274 11.4475 222.024 10.4943 221.524 9.86625C221.025 9.23815 220.307 8.9241 219.373 8.9241C218.601 8.9241 217.89 9.16377 217.238 9.6431C216.586 10.1224 216.062 10.8552 215.665 11.8415C215.599 12.0058 215.538 12.1775 215.483 12.3564L215.455 12.4516L215.331 9.88277C215.302 9.57913 215.249 9.3582 215.173 9.21998L215.143 9.17203C215.051 9.0398 214.913 8.97368 214.728 8.97368C214.597 8.97368 214.44 8.99572 214.255 9.0398C214.07 9.08388 213.842 9.16101 213.571 9.2712L208.942 10.61C208.681 10.7092 208.496 10.8277 208.388 10.9654C208.279 11.1032 208.225 11.2602 208.225 11.4365C208.225 11.5908 208.26 11.7175 208.331 11.8167C208.401 11.9158 208.513 12.0095 208.665 12.0976L209.088 12.1472C209.23 12.2134 209.33 12.3043 209.39 12.42C209.45 12.5357 209.48 12.7257 209.48 12.9902V21.3869C209.48 21.7175 209.452 21.9544 209.398 22.0976C209.344 22.2409 209.246 22.3456 209.105 22.4117L208.73 22.5605C208.589 22.6596 208.477 22.7671 208.396 22.8828C208.314 22.9985 208.273 23.1445 208.273 23.3208C208.273 23.5522 208.341 23.734 208.477 23.8662C208.613 23.9985 208.8 24.0646 209.04 24.0646H217.189ZM234.351 23.1059C233.319 23.9985 231.836 24.4448 229.902 24.4448C229.25 24.4448 228.709 24.3842 228.28 24.2629C227.851 24.1417 227.503 24.0205 227.237 23.8993C226.971 23.7781 226.756 23.7175 226.593 23.7175C226.43 23.7175 226.216 23.7781 225.949 23.8993L225.151 24.2629C224.885 24.3842 224.659 24.4448 224.474 24.4448C224.311 24.4448 224.159 24.3897 224.018 24.2795C223.877 24.1693 223.768 23.9489 223.692 23.6183L223.187 20.3291C223.089 19.9103 223.073 19.5577 223.138 19.2712C223.203 18.9847 223.35 18.7974 223.578 18.7092C223.817 18.599 224.053 18.5935 224.287 18.6927C224.521 18.7919 224.73 18.9682 224.914 19.2216C225.534 20.1803 226.093 20.9351 226.593 21.4861C227.093 22.037 227.579 22.4255 228.052 22.6514C228.525 22.8773 229.022 22.9902 229.543 22.9902C230.097 22.9902 230.51 22.858 230.782 22.5935C231.054 22.3291 231.189 21.993 231.189 21.5853C231.189 21.2767 231.111 20.9957 230.953 20.7423C230.796 20.4888 230.508 20.2547 230.089 20.0398C229.671 19.8249 229.071 19.6128 228.288 19.4034C227.082 19.0949 226.083 18.6927 225.289 18.1968C224.496 17.701 223.907 17.1059 223.521 16.4117C223.135 15.7175 222.942 14.9076 222.942 13.9819C222.942 12.9351 223.2 12.0343 223.717 11.2795C224.233 10.5246 224.939 9.94338 225.835 9.53567C226.732 9.12795 227.74 8.9241 228.859 8.9241C229.532 8.9241 230.081 8.99021 230.505 9.12244C230.929 9.25467 231.257 9.38691 231.491 9.51914C231.725 9.65137 231.901 9.71748 232.021 9.71748C232.151 9.71748 232.344 9.65412 232.599 9.5274C232.855 9.40068 233.113 9.27671 233.373 9.1555C233.634 9.03429 233.852 8.97368 234.025 8.97368C234.221 8.97368 234.379 9.0398 234.498 9.17203C234.618 9.30426 234.699 9.53016 234.743 9.84972L235.166 12.891C235.242 13.3318 235.253 13.6707 235.199 13.9076C235.145 14.1445 235.003 14.296 234.775 14.3621C234.59 14.4062 234.395 14.3704 234.188 14.2547C233.982 14.139 233.776 13.9544 233.569 13.701C232.776 12.4999 232.051 11.6514 231.393 11.1555C230.736 10.6596 230.038 10.4117 229.299 10.4117C228.766 10.4117 228.364 10.5274 228.093 10.7588C227.821 10.9902 227.685 11.2932 227.685 11.6679C227.685 11.9213 227.745 12.1583 227.865 12.3786C227.984 12.599 228.204 12.8056 228.525 12.9985C228.845 13.1913 229.299 13.3814 229.886 13.5687C231.461 14.0536 232.684 14.5687 233.553 15.1142C234.422 15.6596 235.031 16.285 235.378 16.9902C235.726 17.6954 235.9 18.5164 235.9 19.453C235.9 20.9957 235.384 22.2134 234.351 23.1059Z" fill="white"/>
<path fill-rule="evenodd" clip-rule="evenodd" d="M14.3891 4.44702C10.8747 0.935462 5.66533 0.429955 2.77639 3.322C-0.114045 6.21254 0.391444 11.4221 3.89987 14.9352C4.83584 15.8712 5.91432 16.5867 7.05279 17.0997C7.42629 14.9292 8.49726 12.8426 10.1232 11.1296C9.58474 10.9376 9.03275 10.7756 8.45676 10.6181C5.04584 9.6821 3.35088 6.83655 2.95489 3.5005C3.28241 3.89436 3.5806 4.30747 3.87792 4.71937C4.45478 5.51854 5.02833 6.31312 5.80632 6.95355C7.01657 7.95009 8.345 8.33478 9.79833 8.75564C9.85444 8.77188 9.91074 8.78819 9.96723 8.80458C10.6557 9.00409 11.2542 9.29959 11.8032 9.6446C13.2462 8.59008 14.8736 7.88807 16.5536 7.59856C16.0421 6.46005 15.3251 5.38303 14.3891 4.44702ZM8.44626 17.9329C8.66976 15.7594 9.72274 13.6338 11.4102 11.9463C14.9246 8.43476 20.134 7.92776 23.0229 10.8213C25.9134 13.7118 25.4094 18.9214 21.8965 22.4345C20.209 24.122 18.0835 25.175 15.9101 25.4C15.6206 25.4285 15.3341 25.4435 15.0536 25.4435C13.1847 25.4435 11.5152 24.788 10.2852 23.558C8.86925 22.1435 8.21527 20.1454 8.44626 17.9329ZM13.5867 19.7164C14.7386 18.8374 15.9851 18.4894 17.3411 18.1189C20.752 17.1829 22.4455 14.3373 22.843 11.0013C22.5182 11.393 22.2222 11.8033 21.927 12.2123C21.3484 13.0144 20.7733 13.8116 19.9915 14.4543C18.7776 15.4525 17.4461 15.8378 15.9862 16.2603L15.8306 16.3054C12.4932 17.2744 10.8432 20.0959 10.4622 23.3795C10.791 22.9845 11.0922 22.5744 11.3918 22.1665C12.0421 21.2809 12.685 20.4055 13.5867 19.7164Z" fill="#0E8784"/>
</svg>