<svg width="24" height="24" viewBox="0 0 24 24" fill="none" xmlns="http://www.w3.org/2000/svg">
<path fill-rule="evenodd" clip-rule="evenodd" d="M12 -0.000488281C8.741 -0.000488281 8.333 0.0135117 7.053 0.0715117C2.695 0.271512 0.273 2.68951 0.073 7.05151C0.014 8.33251 0 8.74051 0 11.9995C0 15.2585 0.014 15.6675 0.072 16.9475C0.272 21.3055 2.69 23.7275 7.052 23.9275C8.333 23.9855 8.741 23.9995 12 23.9995C15.259 23.9995 15.668 23.9855 16.948 23.9275C21.302 23.7275 23.73 21.3095 23.927 16.9475C23.986 15.6675 24 15.2585 24 11.9995C24 8.74051 23.986 8.33251 23.928 7.05251C23.732 2.69851 21.311 0.272512 16.949 0.0725117C15.668 0.0135117 15.259 -0.000488281 12 -0.000488281ZM12 2.16322C15.204 2.16322 15.584 2.17522 16.85 2.23322C20.102 2.38122 21.621 3.92422 21.769 7.15222C21.827 8.41722 21.838 8.79722 21.838 12.0012C21.838 15.2062 21.826 15.5852 21.769 16.8502C21.62 20.0752 20.105 21.6212 16.85 21.7692C15.584 21.8272 15.206 21.8392 12 21.8392C8.79599 21.8392 8.41599 21.8272 7.15099 21.7692C3.89099 21.6202 2.37999 20.0702 2.23199 16.8492C2.17399 15.5842 2.16199 15.2052 2.16199 12.0002C2.16199 8.79622 2.17499 8.41722 2.23199 7.15122C2.38099 3.92422 3.89599 2.38022 7.15099 2.23222C8.41699 2.17522 8.79599 2.16322 12 2.16322ZM5.83801 12.0004C5.83801 8.59739 8.59701 5.83839 12 5.83839C15.403 5.83839 18.162 8.59739 18.162 12.0004C18.162 15.4044 15.403 18.1634 12 18.1634C8.59701 18.1634 5.83801 15.4034 5.83801 12.0004ZM12 16.0001C9.791 16.0001 8 14.2101 8 12.0001C8 9.79108 9.791 8.00008 12 8.00008C14.209 8.00008 16 9.79108 16 12.0001C16 14.2101 14.209 16.0001 12 16.0001ZM16.965 5.59464C16.965 4.79964 17.61 4.15464 18.406 4.15464C19.201 4.15464 19.845 4.79964 19.845 5.59464C19.845 6.38964 19.201 7.03464 18.406 7.03464C17.61 7.03464 16.965 6.38964 16.965 5.59464Z" fill="#FEFCF7"/>
</svg>
