<svg viewBox="0 0 243 34" fill="none" xmlns="http://www.w3.org/2000/svg">
<g filter="url(#filter0_d_0_2036)">
<path fill-rule="evenodd" clip-rule="evenodd" d="M78.7514 23.8595C78.7514 24.3664 78.4961 24.6198 77.9854 24.6198H68.9885C68.7712 24.6198 68.5946 24.5565 68.4588 24.4298C68.323 24.303 68.2551 24.124 68.2551 23.8926C68.2551 23.6942 68.3013 23.5344 68.3936 23.4132C68.486 23.292 68.6299 23.1928 68.8255 23.1157L69.5264 22.9008C69.7002 22.8457 69.836 22.741 69.9338 22.5868C70.0316 22.4325 70.0805 22.2121 70.0805 21.9256V12.3719C70.0805 12.2176 70.0425 12.0882 69.9664 11.9835C69.8904 11.8788 69.7491 11.7824 69.5427 11.6942L68.5974 11.3802C68.3474 11.259 68.1682 11.1295 68.0595 10.9917C67.9508 10.854 67.8965 10.686 67.8965 10.4876C67.8965 10.2893 67.9644 10.1267 68.1002 10L68.1536 9.95545C68.2837 9.85843 68.4534 9.80992 68.6625 9.80992H70.0928L70.0815 9.71333C70.051 9.52014 69.9746 9.33471 69.8523 9.15702C69.6894 8.92011 69.5046 8.65289 69.2982 8.35537C69.0917 8.05785 68.907 7.70248 68.744 7.28926C68.5811 6.87603 68.4996 6.36639 68.4996 5.76033C68.4996 4.3168 68.9885 3.16253 69.9664 2.29752C70.9444 1.43251 72.3352 1 74.1389 1C75.3015 1 76.2659 1.18733 77.0319 1.56198C77.798 1.93664 78.3711 2.43526 78.7514 3.05785C79.1317 3.68044 79.3219 4.36088 79.3219 5.09917C79.3219 5.9697 79.0964 6.62259 78.6455 7.05785C78.1946 7.49311 77.616 7.71074 76.9097 7.71074C76.1273 7.71074 75.4971 7.4573 75.019 6.95041C74.5409 6.44353 74.3019 5.77135 74.3019 4.93388V3.46281C74.3019 3.07713 74.2258 2.79339 74.0737 2.61157C73.9216 2.42975 73.688 2.33884 73.3729 2.33884C72.9708 2.33884 72.6666 2.47658 72.4601 2.75207C72.2537 3.02755 72.1505 3.42424 72.1505 3.94215C72.1505 4.47107 72.2727 4.96694 72.5172 5.42975C72.7617 5.89256 73.0632 6.32507 73.4218 6.72727C73.7803 7.12948 74.1389 7.51515 74.4975 7.8843C74.856 8.25344 75.1576 8.61708 75.402 8.97521L75.4717 9.08256C75.6037 9.29711 75.6918 9.51066 75.7358 9.72322L75.7507 9.80992H78.1647C78.4146 9.80992 78.6075 9.86226 78.7433 9.96694C78.8791 10.0716 78.947 10.2342 78.947 10.4545C78.947 10.7851 78.8058 11.0551 78.5232 11.2645C78.2407 11.4738 77.7952 11.5785 77.1868 11.5785H76.0295V21.876C76.0295 22.1846 76.0757 22.4215 76.1681 22.5868C76.2604 22.7521 76.4098 22.8512 76.6163 22.8843L78.018 23.0992C78.2679 23.1322 78.4526 23.2121 78.5721 23.3388C78.6917 23.4656 78.7514 23.6391 78.7514 23.8595ZM46.6593 24.2397C45.6814 24.7135 44.5405 24.9504 43.2366 24.9504C41.8567 24.9504 40.6207 24.6584 39.5287 24.0744C38.4367 23.4904 37.5755 22.6446 36.9453 21.5372C36.3151 20.4298 36 19.0826 36 17.4959C36 15.9642 36.3287 14.595 36.9861 13.3884C37.6434 12.1818 38.5589 11.2287 39.7324 10.5289C40.9059 9.8292 42.275 9.47934 43.8397 9.47934C45.1762 9.47934 46.3035 9.67769 47.2216 10.0744C48.1398 10.4711 48.8406 11.0083 49.3242 11.686C49.8077 12.3636 50.0495 13.1212 50.0495 13.9587C50.0495 14.8402 49.7968 15.5317 49.2916 16.0331C48.7863 16.5344 48.099 16.7851 47.2298 16.7851C46.3388 16.7851 45.6624 16.5289 45.2006 16.0165C44.7388 15.5041 44.5079 14.8017 44.5079 13.9091V12.8512C44.5079 12.3113 44.4101 11.9036 44.2145 11.6281C44.0189 11.3526 43.7419 11.2149 43.3833 11.2149C43.0247 11.2149 42.7015 11.3609 42.4135 11.6529C42.1256 11.9449 41.9028 12.3829 41.7453 12.9669C41.5877 13.551 41.509 14.2727 41.509 15.1322C41.509 16.3664 41.691 17.4022 42.055 18.2397C42.419 19.0771 42.9161 19.7052 43.5463 20.124C44.1765 20.5427 44.8936 20.7521 45.6977 20.7521C46.5018 20.7521 47.1755 20.6336 47.7187 20.3967C48.262 20.1598 48.6804 19.7603 48.9737 19.1983C49.1367 19.0441 49.2644 18.9449 49.3568 18.9008C49.4491 18.8567 49.5388 18.8347 49.6257 18.8347C49.7344 18.8457 49.824 18.8981 49.8946 18.9917C49.9652 19.0854 49.9951 19.2314 49.9843 19.4298C49.8973 20.5096 49.5659 21.4628 48.99 22.2893C48.4142 23.1157 47.6373 23.7658 46.6593 24.2397ZM63.2269 23.9091C62.0045 24.5813 60.5838 24.9174 58.9648 24.9174C57.3893 24.9174 56.0066 24.5895 54.8168 23.9339C53.627 23.2782 52.7007 22.3719 52.0379 21.2149C51.3751 20.0579 51.0437 18.719 51.0437 17.1983C51.0437 15.7438 51.3914 14.4353 52.0868 13.2727C52.7822 12.1102 53.7438 11.1873 54.9717 10.5041C56.1995 9.82094 57.612 9.47934 59.2093 9.47934C60.7957 9.47934 62.1811 9.80992 63.3655 10.4711C64.5498 11.1322 65.4734 12.0468 66.1362 13.2149C66.7991 14.3829 67.1305 15.7328 67.1305 17.2645C67.1305 18.719 66.7855 20.022 66.0955 21.1736C65.4055 22.3251 64.4493 23.2369 63.2269 23.9091ZM60.2035 23.1983C59.8667 23.2645 59.538 23.1157 59.2175 22.7521C58.8969 22.3884 58.5927 21.7769 58.3047 20.9174C58.0168 20.0579 57.7424 18.9284 57.4817 17.5289C57.2317 16.1295 57.0905 14.978 57.0579 14.0744C57.0253 13.1708 57.0905 12.4876 57.2535 12.0248C57.4165 11.562 57.6664 11.292 58.0032 11.2149C58.3401 11.1488 58.6687 11.2975 58.9893 11.6612C59.3098 12.0248 59.6168 12.6364 59.9102 13.4959C60.2035 14.3554 60.4806 15.4848 60.7414 16.8843C61.0022 18.2837 61.1461 19.438 61.1733 20.3471C61.2005 21.2562 61.1298 21.9421 60.9614 22.405C60.793 22.8678 60.5404 23.1322 60.2035 23.1983ZM89.3619 24.6198C89.8726 24.6198 90.1279 24.3664 90.1279 23.8595C90.1279 23.6391 90.0681 23.4656 89.9486 23.3388C89.8291 23.2121 89.6444 23.1322 89.3945 23.0992L87.9928 22.8843C87.7863 22.8512 87.6369 22.7521 87.5446 22.5868C87.4522 22.4215 87.406 22.1846 87.406 21.876V11.5785H88.5632C89.1717 11.5785 89.6172 11.4738 89.8997 11.2645C90.1822 11.0551 90.3235 10.7851 90.3235 10.4545C90.3235 10.2342 90.2556 10.0716 90.1198 9.96694C89.9839 9.86226 89.7911 9.80992 89.5411 9.80992H87.1271L87.1122 9.72322C87.0682 9.51066 86.9802 9.29711 86.8482 9.08256L86.7785 8.97521C86.534 8.61708 86.2325 8.25344 85.8739 7.8843C85.5154 7.51515 85.1568 7.12948 84.7982 6.72727C84.4397 6.32507 84.1381 5.89256 83.8937 5.42975C83.6492 4.96694 83.5269 4.47107 83.5269 3.94215C83.5269 3.42424 83.6302 3.02755 83.8366 2.75207C84.0431 2.47658 84.3473 2.33884 84.7493 2.33884C85.0644 2.33884 85.2981 2.42975 85.4502 2.61157C85.6023 2.79339 85.6784 3.07713 85.6784 3.46281V4.93388C85.6784 5.77135 85.9174 6.44353 86.3955 6.95041C86.8736 7.4573 87.5038 7.71074 88.2862 7.71074C88.9924 7.71074 89.571 7.49311 90.022 7.05785C90.4729 6.62259 90.6984 5.9697 90.6984 5.09917C90.6984 4.36088 90.5082 3.68044 90.1279 3.05785C89.7476 2.43526 89.1744 1.93664 88.4084 1.56198C87.6424 1.18733 86.678 1 85.5154 1C83.7117 1 82.3208 1.43251 81.3429 2.29752C80.365 3.16253 79.876 4.3168 79.876 5.76033C79.876 6.36639 79.9575 6.87603 80.1205 7.28926C80.2835 7.70248 80.4682 8.05785 80.6747 8.35537C80.8811 8.65289 81.0658 8.92011 81.2288 9.15702C81.3511 9.33471 81.4275 9.52014 81.458 9.71333L81.4692 9.80992H80.039C79.8299 9.80992 79.6602 9.85843 79.5301 9.95545L79.4767 10C79.3409 10.1267 79.273 10.2893 79.273 10.4876C79.273 10.686 79.3273 10.854 79.436 10.9917C79.5446 11.1295 79.7239 11.259 79.9738 11.3802L80.9192 11.6942C81.1256 11.7824 81.2669 11.8788 81.3429 11.9835C81.419 12.0882 81.457 12.2176 81.457 12.3719V21.9256C81.457 22.2121 81.4081 22.4325 81.3103 22.5868C81.2125 22.741 81.0767 22.8457 80.9029 22.9008L80.202 23.1157C80.0064 23.1928 79.8625 23.292 79.7701 23.4132C79.6777 23.5344 79.6316 23.6942 79.6316 23.8926C79.6316 24.124 79.6995 24.303 79.8353 24.4298C79.9711 24.5565 80.1477 24.6198 80.365 24.6198H89.3619ZM102.124 24.1405C101.07 24.6804 99.8528 24.9504 98.4728 24.9504C96.9516 24.9504 95.6151 24.6336 94.4633 24C93.3116 23.3664 92.4124 22.4793 91.7659 21.3388C91.1194 20.1983 90.7961 18.8788 90.7961 17.3802C90.7961 15.8044 91.1085 14.4242 91.7333 13.2397C92.3581 12.0551 93.2627 11.1322 94.447 10.4711C95.6314 9.80992 97.0548 9.47934 98.7173 9.47934C100.13 9.47934 101.347 9.75758 102.368 10.314C103.39 10.8705 104.175 11.6253 104.723 12.5785C105.272 13.5317 105.546 14.5923 105.546 15.7603C105.546 16.2672 105.411 16.6667 105.139 16.9587L105.074 17.0235C104.806 17.2723 104.437 17.3967 103.965 17.3967H96.5147L96.5307 17.4729C96.7284 18.3804 97.0661 19.1071 97.5438 19.6529C98.3587 20.584 99.4453 21.0496 100.804 21.0496C101.673 21.0496 102.442 20.8512 103.11 20.4545C103.778 20.0578 104.226 19.5069 104.454 18.8017C104.585 18.6584 104.702 18.562 104.805 18.5124C104.908 18.4628 104.998 18.438 105.074 18.438C105.182 18.438 105.275 18.4821 105.351 18.5702C105.427 18.6584 105.465 18.8072 105.465 19.0165C105.465 20.0964 105.172 21.0854 104.585 21.9835C103.998 22.8815 103.178 23.6005 102.124 24.1405ZM96.3447 16.0717C96.3291 15.8181 96.3214 15.5546 96.3214 15.281C96.3214 14.2452 96.3975 13.4298 96.5496 12.8347C96.7017 12.2397 96.8973 11.8182 97.1363 11.5702C97.3754 11.3223 97.6416 11.1983 97.935 11.1983C98.3153 11.1983 98.6711 11.5234 99.0025 12.1736C99.3339 12.8237 99.4996 13.9036 99.4996 15.4132C99.4996 15.876 99.2932 16.1074 98.8803 16.1074H96.3467L96.3447 16.0717ZM117.705 24.1405C116.651 24.6804 115.434 24.9504 114.054 24.9504C112.533 24.9504 111.197 24.6336 110.045 24C108.893 23.3664 107.994 22.4793 107.347 21.3388C106.701 20.1983 106.378 18.8788 106.378 17.3802C106.378 15.8044 106.69 14.4242 107.315 13.2397C107.94 12.0551 108.844 11.1322 110.029 10.4711C111.213 9.80992 112.636 9.47934 114.299 9.47934C115.711 9.47934 116.928 9.75758 117.95 10.314C118.971 10.8705 119.756 11.6253 120.305 12.5785C120.854 13.5317 121.128 14.5923 121.128 15.7603C121.128 16.2672 120.992 16.6667 120.721 16.9587L120.656 17.0235C120.388 17.2723 120.018 17.3967 119.547 17.3967H112.096L112.112 17.4729C112.31 18.3804 112.648 19.1071 113.125 19.6529C113.94 20.584 115.027 21.0496 116.385 21.0496C117.254 21.0496 118.023 20.8512 118.691 20.4545C119.36 20.0578 119.808 19.5069 120.036 18.8017C120.166 18.6584 120.283 18.562 120.386 18.5124C120.49 18.4628 120.579 18.438 120.655 18.438C120.764 18.438 120.856 18.4821 120.932 18.5702C121.008 18.6584 121.046 18.8072 121.046 19.0165C121.046 20.0964 120.753 21.0854 120.166 21.9835C119.58 22.8815 118.759 23.6005 117.705 24.1405ZM111.926 16.0717C111.911 15.8181 111.903 15.5546 111.903 15.281C111.903 14.2452 111.979 13.4298 112.131 12.8347C112.283 12.2397 112.479 11.8182 112.718 11.5702C112.957 11.3223 113.223 11.1983 113.517 11.1983C113.897 11.1983 114.253 11.5234 114.584 12.1736C114.915 12.8237 115.081 13.9036 115.081 15.4132C115.081 15.876 114.875 16.1074 114.462 16.1074H111.928L111.926 16.0717ZM131.6 24.4132C131.464 24.551 131.266 24.6198 131.005 24.6198H122.856C122.617 24.6198 122.429 24.5537 122.293 24.4215C122.158 24.2893 122.09 24.1074 122.09 23.876C122.09 23.6997 122.13 23.5537 122.212 23.438C122.293 23.3223 122.405 23.2149 122.546 23.1157L122.921 22.9669C123.062 22.9008 123.16 22.7961 123.214 22.6529C123.269 22.5096 123.296 22.2727 123.296 21.9421V13.5455C123.296 13.281 123.266 13.0909 123.206 12.9752C123.146 12.8595 123.046 12.7686 122.905 12.7025L122.481 12.6529C122.329 12.5647 122.217 12.4711 122.147 12.3719C122.076 12.2727 122.041 12.146 122.041 11.9917C122.041 11.8154 122.095 11.6584 122.204 11.5207C122.312 11.3829 122.497 11.2645 122.758 11.1653L127.387 9.82645C127.658 9.71625 127.886 9.63912 128.071 9.59504C128.256 9.55096 128.413 9.52893 128.544 9.52893C128.729 9.52893 128.867 9.59504 128.959 9.72727L128.989 9.77523C129.065 9.91344 129.118 10.1344 129.147 10.438L129.271 13.0064L129.299 12.9116C129.354 12.7327 129.415 12.5611 129.481 12.3967C129.878 11.4105 130.402 10.6777 131.054 10.1983C131.706 9.71901 132.418 9.47934 133.189 9.47934C134.123 9.47934 134.841 9.79339 135.34 10.4215C135.84 11.0496 136.09 12.0028 136.09 13.281C136.09 14.5482 135.829 15.4793 135.308 16.0744C134.786 16.6694 134.113 16.9669 133.287 16.9669C132.483 16.9669 131.888 16.7631 131.502 16.3554C131.116 15.9477 130.913 15.3691 130.891 14.6198L130.875 13.9587C130.864 13.7052 130.815 13.5069 130.728 13.3636C130.641 13.2204 130.5 13.1488 130.304 13.1488C130.109 13.1488 129.937 13.2507 129.791 13.4545C129.644 13.6584 129.533 13.9697 129.457 14.3884C129.381 14.8072 129.343 15.3416 129.343 15.9917V21.8099C129.343 22.1185 129.391 22.3636 129.489 22.5455C129.587 22.7273 129.739 22.8402 129.946 22.8843L131.168 23.1322C131.396 23.1653 131.559 23.2507 131.657 23.3884C131.755 23.5262 131.804 23.6887 131.804 23.876C131.804 24.0964 131.736 24.2755 131.6 24.4132ZM144.631 24.9174C146.25 24.9174 147.67 24.5813 148.893 23.9091C150.115 23.2369 151.071 22.3251 151.761 21.1736C152.451 20.022 152.796 18.719 152.796 17.2645C152.796 15.7328 152.465 14.3829 151.802 13.2149C151.139 12.0468 150.216 11.1322 149.031 10.4711C147.847 9.80992 146.462 9.47934 144.875 9.47934C143.278 9.47934 141.865 9.82094 140.637 10.5041C139.41 11.1873 138.448 12.1102 137.753 13.2727C137.057 14.4353 136.71 15.7438 136.71 17.1983C136.71 18.719 137.041 20.0579 137.704 21.2149C138.367 22.3719 139.293 23.2782 140.483 23.9339C141.672 24.5895 143.055 24.9174 144.631 24.9174ZM144.883 22.7521C145.204 23.1157 145.533 23.2645 145.869 23.1983C146.206 23.1322 146.459 22.8678 146.627 22.405C146.796 21.9421 146.866 21.2562 146.839 20.3471C146.812 19.438 146.668 18.2837 146.407 16.8843C146.146 15.4848 145.869 14.3554 145.576 13.4959C145.283 12.6364 144.976 12.0248 144.655 11.6612C144.335 11.2975 144.006 11.1488 143.669 11.2149C143.332 11.292 143.082 11.562 142.919 12.0248C142.756 12.4876 142.691 13.1708 142.724 14.0744C142.756 14.978 142.898 16.1295 143.147 17.5289C143.408 18.9284 143.683 20.0579 143.971 20.9174C144.259 21.7769 144.563 22.3884 144.883 22.7521ZM165.721 24.9504C166.634 24.9504 167.384 24.7824 167.97 24.4463C168.557 24.1102 168.994 23.7107 169.282 23.2479C169.57 22.7851 169.714 22.3609 169.714 21.9752C169.714 21.8099 169.679 21.6722 169.608 21.562C169.538 21.4518 169.443 21.3967 169.323 21.3967C169.269 21.3967 169.22 21.4077 169.176 21.4298C169.133 21.4518 169.095 21.4848 169.062 21.5289C169.008 21.7273 168.924 21.865 168.81 21.9421C168.696 22.0193 168.573 22.0578 168.443 22.0578C168.258 22.0578 168.12 21.9945 168.027 21.8678C167.935 21.741 167.889 21.573 167.889 21.3636V14.0579C167.889 12.6033 167.397 11.4766 166.414 10.6777C165.43 9.87879 163.89 9.47934 161.793 9.47934C160.163 9.47934 158.802 9.6832 157.71 10.0909C156.618 10.4986 155.798 11.0193 155.249 11.6529C154.701 12.2865 154.426 12.9339 154.426 13.595C154.426 14.3003 154.63 14.8375 155.037 15.2066C155.445 15.5758 156.034 15.7603 156.806 15.7603C157.751 15.7603 158.495 15.5041 159.039 14.9917C159.582 14.4793 159.854 13.8154 159.854 13V11.7438C159.854 11.4353 159.949 11.1956 160.139 11.0248C160.329 10.854 160.565 10.7686 160.848 10.7686C161.152 10.7686 161.394 10.8815 161.573 11.1074C161.752 11.3333 161.842 11.6391 161.842 12.0248L161.842 16.843L161.755 16.8241C161.493 16.7735 161.189 16.7446 160.844 16.7373L160.669 16.7355C158.332 16.7355 156.591 17.1322 155.445 17.9256C154.299 18.719 153.725 19.8264 153.725 21.2479C153.725 22.3278 154.119 23.2149 154.907 23.9091C155.695 24.6033 156.741 24.9504 158.044 24.9504C159.022 24.9504 159.935 24.7493 160.783 24.3471C161.418 24.0455 161.935 23.6493 162.332 23.1586L162.355 23.1299L162.379 23.2039C162.504 23.5612 162.733 23.8813 163.067 24.1642L163.17 24.2479C163.773 24.7163 164.624 24.9504 165.721 24.9504ZM160.106 21.8347C160.372 22.1928 160.723 22.3719 161.158 22.3719L161.251 22.3687C161.436 22.3558 161.615 22.3041 161.789 22.2137L161.842 22.1837V17.9422L161.761 17.9174C161.576 17.8678 161.359 17.843 161.109 17.843C160.685 17.843 160.345 18.0413 160.09 18.438C159.835 18.8347 159.707 19.4187 159.707 20.1901C159.707 20.9284 159.84 21.4766 160.106 21.8347ZM177.212 25C179.146 25 180.629 24.5537 181.661 23.6612C182.694 22.7686 183.21 21.551 183.21 20.0083C183.21 19.0716 183.036 18.2507 182.688 17.5455C182.34 16.8402 181.732 16.2149 180.863 15.6694C179.993 15.124 178.771 14.6088 177.195 14.124C176.609 13.9366 176.155 13.7466 175.834 13.5537C175.514 13.3609 175.294 13.1543 175.174 12.9339C175.055 12.7135 174.995 12.4766 174.995 12.2231C174.995 11.8485 175.131 11.5455 175.403 11.314C175.674 11.0826 176.076 10.9669 176.609 10.9669C177.348 10.9669 178.046 11.2149 178.703 11.7107C179.36 12.2066 180.086 13.0551 180.879 14.2562C181.085 14.5096 181.292 14.6942 181.498 14.8099C181.705 14.9256 181.9 14.9614 182.085 14.9174C182.313 14.8512 182.454 14.6997 182.509 14.4628C182.563 14.2259 182.552 13.8871 182.476 13.4463L182.052 10.405C182.009 10.0854 181.927 9.8595 181.808 9.72727C181.688 9.59504 181.531 9.52893 181.335 9.52893C181.161 9.52893 180.944 9.58953 180.683 9.71074C180.423 9.83196 180.164 9.95592 179.909 10.0826C179.654 10.2094 179.461 10.2727 179.331 10.2727C179.211 10.2727 179.034 10.2066 178.801 10.0744C178.567 9.94215 178.239 9.80992 177.815 9.67769C177.391 9.54545 176.842 9.47934 176.169 9.47934C175.049 9.47934 174.042 9.6832 173.145 10.0909C172.249 10.4986 171.542 11.0799 171.026 11.8347C170.51 12.5895 170.252 13.4904 170.252 14.5372C170.252 15.4628 170.445 16.2727 170.831 16.9669C171.217 17.6612 171.806 18.2562 172.599 18.7521C173.392 19.2479 174.392 19.6501 175.598 19.9587C176.38 20.168 176.981 20.3802 177.399 20.595C177.817 20.8099 178.105 21.0441 178.263 21.2975C178.421 21.551 178.499 21.832 178.499 22.1405C178.499 22.5482 178.363 22.8843 178.092 23.1488C177.82 23.4132 177.407 23.5455 176.853 23.5455C176.332 23.5455 175.834 23.4325 175.362 23.2066C174.889 22.9807 174.403 22.5923 173.903 22.0413C173.403 21.4904 172.844 20.7355 172.224 19.7769C172.04 19.5234 171.83 19.3471 171.597 19.2479C171.363 19.1488 171.127 19.1543 170.888 19.2645C170.66 19.3526 170.513 19.5399 170.448 19.8264C170.383 20.1129 170.399 20.4656 170.497 20.8843L171.002 24.1736C171.078 24.5041 171.187 24.7245 171.328 24.8347C171.469 24.9449 171.621 25 171.784 25C171.969 25 172.194 24.9394 172.461 24.8182L173.259 24.4545C173.525 24.3333 173.74 24.2727 173.903 24.2727C174.066 24.2727 174.281 24.3333 174.547 24.4545C174.813 24.5758 175.161 24.697 175.59 24.8182C176.019 24.9394 176.56 25 177.212 25ZM192.663 24.3802C191.946 24.7603 191.098 24.9504 190.12 24.9504C188.469 24.9504 187.227 24.5482 186.396 23.7438C185.565 22.9394 185.149 21.6722 185.149 19.9422V12.4711C185.149 12.2397 185.127 12.0634 185.084 11.9421C185.041 11.8209 184.932 11.7218 184.758 11.6446L183.992 11.3967C183.807 11.3085 183.688 11.2011 183.633 11.0744C183.579 10.9477 183.552 10.7906 183.552 10.6033C183.552 10.3719 183.633 10.1818 183.796 10.0331C183.959 9.8843 184.16 9.80992 184.399 9.80992H185.198C185.296 9.80992 185.399 9.77135 185.508 9.69421C185.616 9.61708 185.763 9.46281 185.948 9.23141L188.963 6.70248C189.18 6.43802 189.398 6.23691 189.615 6.09917C189.832 5.96143 190.05 5.89256 190.267 5.89256C190.517 5.89256 190.712 5.9697 190.854 6.12397L190.898 6.17866C191.01 6.3332 191.066 6.55739 191.066 6.85124L191.065 9.80992H194.472C194.711 9.80992 194.896 9.86226 195.026 9.96694C195.157 10.0716 195.222 10.2342 195.222 10.4545C195.222 10.7631 195.086 11.0275 194.814 11.2479L194.754 11.2935C194.48 11.4835 194.065 11.5785 193.51 11.5785H191.065L191.066 19.1157C191.066 19.9421 191.204 20.5537 191.481 20.9504C191.758 21.3471 192.163 21.5455 192.695 21.5455C192.924 21.5455 193.136 21.4959 193.331 21.3967C193.527 21.2975 193.703 21.168 193.861 21.0083C194.018 20.8485 194.168 20.6694 194.309 20.4711C194.45 20.2727 194.586 20.0744 194.717 19.876C194.825 19.832 194.92 19.8512 195.002 19.9339C195.083 20.0165 195.119 20.1846 195.108 20.438C195.032 21.3306 194.784 22.1157 194.366 22.7934C193.948 23.4711 193.38 24 192.663 24.3802ZM203.339 24.9504C204.718 24.9504 205.935 24.6804 206.989 24.1405C208.043 23.6005 208.864 22.8815 209.451 21.9835C210.037 21.0854 210.331 20.0964 210.331 19.0165C210.331 18.8072 210.293 18.6584 210.217 18.5702C210.14 18.4821 210.048 18.438 209.939 18.438C209.863 18.438 209.774 18.4628 209.671 18.5124C209.567 18.562 209.451 18.6584 209.32 18.8017C209.092 19.5069 208.644 20.0578 207.975 20.4545C207.307 20.8512 206.538 21.0496 205.669 21.0496C204.311 21.0496 203.224 20.584 202.409 19.6529C201.932 19.1071 201.594 18.3804 201.396 17.4729L201.38 17.3967H208.831C209.303 17.3967 209.672 17.2723 209.94 17.0235L210.005 16.9587C210.276 16.6667 210.412 16.2672 210.412 15.7603C210.412 14.5923 210.138 13.5317 209.589 12.5785C209.04 11.6253 208.255 10.8705 207.234 10.314C206.212 9.75758 204.996 9.47934 203.583 9.47934C201.921 9.47934 200.497 9.80992 199.313 10.4711C198.128 11.1322 197.224 12.0551 196.599 13.2397C195.974 14.4242 195.662 15.8044 195.662 17.3802C195.662 18.8788 195.985 20.1983 196.632 21.3388C197.278 22.4793 198.177 23.3664 199.329 24C200.481 24.6336 201.817 24.9504 203.339 24.9504ZM201.187 15.281C201.187 15.5546 201.195 15.8181 201.21 16.0717L201.212 16.1074H203.746C204.159 16.1074 204.365 15.876 204.365 15.4132C204.365 13.9036 204.2 12.8237 203.868 12.1736C203.537 11.5234 203.181 11.1983 202.801 11.1983C202.507 11.1983 202.241 11.3223 202.002 11.5702C201.763 11.8182 201.567 12.2397 201.415 12.8347C201.263 13.4298 201.187 14.2452 201.187 15.281ZM220.289 24.6198C220.55 24.6198 220.748 24.551 220.884 24.4132C221.02 24.2755 221.088 24.0964 221.088 23.876C221.088 23.6887 221.039 23.5262 220.941 23.3884C220.843 23.2507 220.68 23.1653 220.452 23.1322L219.23 22.8843C219.023 22.8402 218.871 22.7273 218.773 22.5455C218.676 22.3636 218.627 22.1185 218.627 21.8099V15.9917C218.627 15.3416 218.665 14.8072 218.741 14.3884C218.817 13.9697 218.928 13.6584 219.075 13.4545C219.222 13.2507 219.393 13.1488 219.588 13.1488C219.784 13.1488 219.925 13.2204 220.012 13.3636C220.099 13.5069 220.148 13.7052 220.159 13.9587L220.175 14.6198C220.197 15.3691 220.4 15.9477 220.786 16.3554C221.172 16.7631 221.767 16.9669 222.571 16.9669C223.397 16.9669 224.07 16.6694 224.592 16.0744C225.114 15.4793 225.374 14.5482 225.374 13.281C225.374 12.0028 225.124 11.0496 224.625 10.4215C224.125 9.79339 223.408 9.47934 222.473 9.47934C221.702 9.47934 220.99 9.71901 220.338 10.1983C219.686 10.6777 219.162 11.4105 218.765 12.3967C218.699 12.5611 218.639 12.7327 218.583 12.9116L218.555 13.0069L218.431 10.438C218.402 10.1344 218.35 9.91344 218.273 9.77523L218.244 9.72727C218.151 9.59504 218.013 9.52893 217.828 9.52893C217.698 9.52893 217.54 9.55096 217.355 9.59504C217.171 9.63912 216.942 9.71625 216.671 9.82645L212.042 11.1653C211.781 11.2645 211.596 11.3829 211.488 11.5207C211.379 11.6584 211.325 11.8154 211.325 11.9917C211.325 12.146 211.36 12.2727 211.431 12.3719C211.501 12.4711 211.613 12.5647 211.765 12.6529L212.189 12.7025C212.33 12.7686 212.43 12.8595 212.49 12.9752C212.55 13.0909 212.58 13.281 212.58 13.5455V21.9421C212.58 22.2727 212.553 22.5096 212.498 22.6529C212.444 22.7961 212.346 22.9008 212.205 22.9669L211.83 23.1157C211.689 23.2149 211.577 23.3223 211.496 23.438C211.414 23.5537 211.374 23.6997 211.374 23.876C211.374 24.1074 211.442 24.2893 211.577 24.4215C211.713 24.5537 211.901 24.6198 212.14 24.6198H220.289ZM237.452 23.6612C236.419 24.5537 234.936 25 233.002 25C232.35 25 231.81 24.9394 231.38 24.8182C230.951 24.697 230.603 24.5758 230.337 24.4545C230.071 24.3333 229.856 24.2727 229.693 24.2727C229.53 24.2727 229.316 24.3333 229.05 24.4545L228.251 24.8182C227.985 24.9394 227.759 25 227.575 25C227.412 25 227.26 24.9449 227.118 24.8347C226.977 24.7245 226.868 24.5041 226.792 24.1736L226.287 20.8843C226.189 20.4656 226.173 20.1129 226.238 19.8264C226.303 19.5399 226.45 19.3526 226.678 19.2645C226.917 19.1543 227.154 19.1488 227.387 19.2479C227.621 19.3471 227.83 19.5234 228.015 19.7769C228.634 20.7355 229.194 21.4904 229.693 22.0413C230.193 22.5923 230.68 22.9807 231.152 23.2066C231.625 23.4325 232.122 23.5455 232.644 23.5455C233.198 23.5455 233.611 23.4132 233.882 23.1488C234.154 22.8843 234.29 22.5482 234.29 22.1405C234.29 21.832 234.211 21.551 234.053 21.2975C233.896 21.0441 233.608 20.8099 233.19 20.595C232.771 20.3802 232.171 20.168 231.389 19.9587C230.182 19.6501 229.183 19.2479 228.39 18.7521C227.596 18.2562 227.007 17.6612 226.621 16.9669C226.235 16.2727 226.043 15.4628 226.043 14.5372C226.043 13.4904 226.301 12.5895 226.817 11.8347C227.333 11.0799 228.039 10.4986 228.936 10.0909C229.832 9.6832 230.84 9.47934 231.959 9.47934C232.633 9.47934 233.181 9.54545 233.605 9.67769C234.029 9.80992 234.358 9.94215 234.591 10.0744C234.825 10.2066 235.001 10.2727 235.121 10.2727C235.251 10.2727 235.444 10.2094 235.7 10.0826C235.955 9.95592 236.213 9.83196 236.474 9.71074C236.734 9.58953 236.952 9.52893 237.126 9.52893C237.321 9.52893 237.479 9.59504 237.598 9.72727C237.718 9.8595 237.799 10.0854 237.843 10.405L238.267 13.4463C238.343 13.8871 238.353 14.2259 238.299 14.4628C238.245 14.6997 238.104 14.8512 237.875 14.9174C237.691 14.9614 237.495 14.9256 237.289 14.8099C237.082 14.6942 236.876 14.5096 236.669 14.2562C235.876 13.0551 235.151 12.2066 234.493 11.7107C233.836 11.2149 233.138 10.9669 232.399 10.9669C231.867 10.9669 231.465 11.0826 231.193 11.314C230.921 11.5455 230.785 11.8485 230.785 12.2231C230.785 12.4766 230.845 12.7135 230.965 12.9339C231.084 13.1543 231.304 13.3609 231.625 13.5537C231.945 13.7466 232.399 13.9366 232.986 14.124C234.561 14.6088 235.784 15.124 236.653 15.6694C237.522 16.2149 238.131 16.8402 238.478 17.5455C238.826 18.2507 239 19.0716 239 20.0083C239 21.551 238.484 22.7686 237.452 23.6612Z" fill="#333D4B"/>
<path fill-rule="evenodd" clip-rule="evenodd" d="M17.4893 5.00268C13.9749 1.49113 8.76554 0.985619 5.87661 3.87766C2.98617 6.76821 3.49166 11.9778 7.00008 15.4908C7.93606 16.4269 9.01454 17.1424 10.153 17.6554C10.5265 15.4848 11.5975 13.3983 13.2234 11.6853C12.685 11.4933 12.133 11.3313 11.557 11.1738C8.14606 10.2378 6.4511 7.39222 6.05511 4.05617C6.38262 4.45002 6.68082 4.86313 6.97814 5.27503C7.555 6.0742 8.12855 6.86879 8.90654 7.50922C10.1168 8.50576 11.4452 8.89045 12.8986 9.3113C12.9547 9.32755 13.011 9.34385 13.0674 9.36025C13.7559 9.55975 14.3544 9.85525 14.9034 10.2003C16.3464 9.14574 17.9738 8.44373 19.6538 8.15423C19.1423 7.01571 18.4253 5.93869 17.4893 5.00268ZM11.5465 18.4894C11.77 16.3159 12.823 14.1903 14.5104 12.5028C18.0248 8.99124 23.2342 8.48423 26.1232 11.3778C29.0136 14.2683 28.5096 19.4779 24.9967 22.991C23.3092 24.6785 21.1838 25.7315 19.0103 25.9565C18.7208 25.985 18.4343 26 18.1538 26C16.2849 26 14.6154 25.3445 13.3854 24.1145C11.9695 22.7 11.3155 20.7019 11.5465 18.4894ZM16.6869 20.2729C17.8388 19.3939 19.0853 19.0459 20.4413 18.6754C23.8522 17.7394 25.5457 14.8938 25.9432 11.5578C25.6184 11.9494 25.3224 12.3598 25.0273 12.7688C24.4487 13.5709 23.8735 14.3681 23.0917 15.0108C21.8778 16.009 20.5463 16.3943 19.0864 16.8168L18.9308 16.8619C15.5934 17.8309 13.9434 20.6524 13.5624 23.936C13.8912 23.541 14.1924 23.1309 14.492 22.7229C15.1423 21.8374 15.7852 20.962 16.6869 20.2729Z" fill="#0E8784"/>
</g>
<defs>
<filter id="filter0_d_0_2036" x="0" y="1" width="243" height="33" filterUnits="userSpaceOnUse" color-interpolation-filters="sRGB">
<feFlood flood-opacity="0" result="BackgroundImageFix"/>
<feColorMatrix in="SourceAlpha" type="matrix" values="0 0 0 0 0 0 0 0 0 0 0 0 0 0 0 0 0 0 127 0" result="hardAlpha"/>
<feOffset dy="4"/>
<feGaussianBlur stdDeviation="2"/>
<feComposite in2="hardAlpha" operator="out"/>
<feColorMatrix type="matrix" values="0 0 0 0 0 0 0 0 0 0 0 0 0 0 0 0 0 0 0.25 0"/>
<feBlend mode="normal" in2="BackgroundImageFix" result="effect1_dropShadow_0_2036"/>
<feBlend mode="normal" in="SourceGraphic" in2="effect1_dropShadow_0_2036" result="shape"/>
</filter>
</defs>
</svg>
